<?xml version="1.0" encoding="UTF-8" standalone="no"?>
<!-- Created with Inkscape (http://www.inkscape.org/) -->

<svg
   width="210mm"
   height="297mm"
   viewBox="0 0 210 297"
   version="1.1"
   id="svg1"
   xml:space="preserve"
   xmlns="http://www.w3.org/2000/svg"
   xmlns:svg="http://www.w3.org/2000/svg"><defs
     id="defs1" /><g
     id="g20"><path
       id="path4"
       style="display:inline;fill:#d38044;stroke-width:0.552723"
       d="m 120.19783,66.738562 c -0.24926,-0.0069 -0.7652,0.227993 -1.55649,0.660942 -6.70365,3.667831 -13.68084,9.494381 -18.41697,15.378906 -4.908193,6.098334 -8.944225,14.319698 -10.437086,21.26072 -0.973141,4.5246 -1.477579,10.61604 -0.970483,15.07556 0.122682,1.07874 0.407379,2.71387 0.338997,2.78226 -0.365472,0.36547 -3.792796,-3.71257 -4.943367,-6.23734 -2.35501,-5.16773 -4.205767,-9.27186 -2.253609,-13.47463 0.0028,-0.006 0.0059,-0.0118 0.0088,-0.0176 -0.336912,0.51138 -0.875108,1.30732 -1.840198,2.21743 -3.367787,3.17591 -4.408486,6.10839 -6.126758,11.27787 -1.57158,4.72816 -1.364394,7.51611 -1.35754,13.23123 0.0039,3.30029 -0.481131,4.69159 -0.146761,6.89519 0.815488,5.37436 1.539772,7.50876 3.786332,12.10624 2.0122,4.11788 3.756337,8.09285 4.487065,7.81244 0.276218,-0.10599 18.358718,-23.43417 21.271058,-27.89804 2.93299,-4.49554 5.96517,-8.37 6.17017,-8.3721 0.12019,-0.001 1.95733,2.69569 4.08295,5.99343 2.12562,3.29775 5.93839,9.1985 8.47287,13.1129 2.53448,3.91439 5.6506,8.13198 5.95622,8.6682 0.30562,0.53622 2.56405,3.35892 4.824,7.76594 2.27186,4.43024 4.45192,6.97011 4.58783,6.97011 0.13589,0 -0.42904,-1.8401 0.38033,-2.93935 6.87337,-9.33505 7.9308,-15.91435 5.47564,-25.46253 -1.15591,-4.49536 -1.90626,-6.56809 -5.19917,-10.64741 -0.27029,-0.33485 -0.48236,-0.65706 -0.65061,-0.95912 5.51354,11.09253 -1.42983,4.42343 -2.127,6.55723 -0.86939,2.66091 -4.11427,4.00148 -4.38681,3.91139 -0.1482,-0.049 -0.20368,-3.29847 -0.23358,-4.21422 -0.20008,-6.12768 -1.63357,-12.17968 -3.96874,-16.7535 -1.31159,-2.56891 -2.61987,-4.38532 -4.48087,-6.22236 -4.93142,-4.86791 -7.44463,-11.177086 -7.46311,-18.735804 -0.0152,-6.193455 1.61725,-11.227899 5.56142,-17.152441 1.19734,-1.798529 1.59982,-2.579344 1.15548,-2.591573 z M 81.967607,102.16741 c 0.02474,-0.0376 0.04814,-0.0736 0.0708,-0.10801 -0.02675,0.0323 -0.05058,0.0681 -0.0708,0.10801 z m 0.0708,-0.10801 c 0.23403,-0.28261 0.672849,-0.29867 0.525033,-0.44648 -0.134366,-0.13437 -0.26333,0.0491 -0.525033,0.44648 z M 134.167,118.17005 c -0.008,-0.005 0.0819,0.16251 0.32918,0.61856 0.53167,0.9807 0.99678,1.86629 1.40147,2.66599 -0.45332,-1.01117 -0.43738,-1.6986 -0.67593,-1.6986 -0.13508,0 -1.03203,-1.57038 -1.05472,-1.58595 z m -28.24375,29.96768 c 7.5e-4,7e-4 0.002,0.002 0.004,0.003 0.0284,0.0133 0.0568,0.0266 0.0853,0.0398 -0.004,-0.003 -0.007,-0.006 -0.0109,-0.009 -0.0167,-0.0137 -0.0712,-0.033 -0.078,-0.0336 z m -0.67334,0.14573 c -1.48757,1.8964 -3.65118,5.00669 -6.734993,9.93272 -3.857892,6.16254 -5.116268,8.44725 -5.989299,9.47953 -0.759574,0.89814 -2.547071,3.31008 -2.976045,3.86539 -0.428974,0.5553 0.119584,4.02043 -0.4408,4.71186 -2.517196,3.10582 -3.152385,7.97637 -3.968233,9.5219 -1.060239,2.00851 -11.218063,15.03856 -11.421526,14.75207 -0.02755,-0.0388 -0.130939,-2.18301 -0.401525,-5.20692 -0.14742,0.12766 -0.300031,0.2503 -0.441317,0.38344 -0.453398,0.119 -0.891429,0.36509 -1.360124,0.35709 -0.464396,-0.007 -0.879563,-0.16277 -1.251603,-0.41703 0.477048,4.04424 0.723392,8.56782 -0.80977,9.90637 -5.678297,4.95755 -14.606399,4.89098 -19.974491,7.75922 -0.456774,0.24406 -2.244062,-0.27683 -4.075204,-0.92139 2.381748,-2.69822 -10.134509,-1.6326 -8.054288,-4.48603 2.705558,-3.71121 8.378577,-13.09455 7.954036,-13.51908 -0.06245,-0.0625 -0.206898,-0.59143 -0.443384,-0.96945 0.758158,0.0988 1.885451,0.0912 1.817977,0.0687 -0.115973,-0.0386 2.699141,-3.36279 3.555856,-4.33462 4.393724,-4.98408 5.975622,-7.43152 8.176245,-11.81323 0.337286,-0.67159 1.489069,-0.97523 2.473234,-1.11259 -0.234842,-0.72513 -0.458909,-1.45363 -0.663526,-2.18746 -0.08663,-0.3107 -0.183608,-0.67756 -0.279569,-1.06557 -0.197163,0.12881 -0.386686,0.29532 -0.566374,0.50643 -2.304303,2.70722 -0.881127,3.5141 -4.724776,8.02896 -0.534201,0.86949 -8.533614,2.14491 -9.064046,3.01584 -1.051788,1.79793 -3.130907,5.47542 -4.309815,7.19233 -1.481464,2.05442 -2.99796,1.45101 -4.768184,3.25406 -1.534204,1.56302 -1.63802,3.97651 -3.096452,5.60999 -1.051186,1.14658 -1.849081,2.05665 -2.894397,3.20859 -1.141755,1.26611 -2.179519,1.38588 -3.304708,2.66651 -1.388889,1.41205 0.09121,1.36437 -1.278475,2.79466 -1.137217,1.23884 -1.460999,2.22081 -2.687691,3.37344 -0.663848,0.65224 1.176935,1.21685 0.536401,1.89239 -0.646172,0.75883 -1.049841,0.49801 -1.58905,1.1312 -0.621543,0.87321 -2.247815,0.24754 -2.868042,1.12189 -0.69542,0.95068 3.689997,-1.07622 2.870109,-0.22841 0.0082,0.002 0.01359,0.005 0.01602,0.008 v 5.2e-4 l 5.17e-4,5.2e-4 5.16e-4,5.1e-4 v 5.2e-4 5.2e-4 c 2.6e-5,6.8e-4 4e-6,0.002 0,0.003 v 5.1e-4 5.2e-4 l -5.16e-4,5.2e-4 v 5.1e-4 c -5.2e-5,1.4e-4 -4.17e-4,0.001 -5.17e-4,0.002 v 5.2e-4 c -0.04138,0.0703 -1.05745,0.31296 -1.093473,0.38189 v 5.2e-4 5.1e-4 c -6.7e-5,0.001 -9.6e-5,0.002 0,0.003 l 5.16e-4,5.2e-4 v 5.2e-4 h 5.17e-4 v 5.1e-4 5.2e-4 l 5.17e-4,5.2e-4 v 5.1e-4 l 5.17e-4,5.2e-4 v 5.2e-4 c 0.0027,0.002 0.008,0.005 0.0155,0.006 1.469646,0.30031 -0.486766,0.63085 1.011307,0.67386 1.658817,5.5e-4 -0.715144,-0.58444 0.942578,-0.64802 1.620347,-0.0908 2.856483,0.88902 4.478797,0.84491 1.839093,-0.0467 1.853735,0.42141 3.693314,0.41341 2.243404,-0.0392 3.525101,-1.39315 5.76709,-1.32757 2.370723,0.0616 4.741523,1.52781 7.111711,1.60972 2.456678,0.1 2.609627,-2.25328 5.067908,-2.21588 2.317966,0.0309 3.483581,-0.15065 5.801713,-0.14263 2.159755,-0.0322 3.35729,-1.46167 5.514392,-1.56941 2.325323,-0.16386 4.070285,-0.29552 6.390307,-0.52245 2.518622,-0.25363 12.445129,0.62791 14.97428,0.56792 3.155939,-0.12565 4.098521,-0.64808 7.24607,-0.45268 2.500846,0.17226 5.582767,-1.29165 8.088395,-1.23455 2.542382,0.0487 3.356623,0.63506 5.899383,0.64647 0.70714,-0.004 0.98689,-0.31068 1.07849,-0.74879 0.18776,-0.0887 0.28688,-0.21072 0.20619,-0.38861 -0.0626,-0.13792 -0.12431,-0.27414 -0.185,-0.40876 -0.0584,-0.72857 -0.22984,-1.53104 0.10387,-1.96525 -0.30955,0.0353 -0.63488,0.0687 -0.93276,0.0977 -6.523298,-14.96279 0.64853,-5.64475 -2.66289,-13.93145 -1.11271,-2.7845 -4.019034,-4.45038 -3.710888,-4.45038 h 5.16e-4 c 2.32e-4,-6e-5 0.0013,-4.1e-4 0.0016,-5.1e-4 h 5.16e-4 c 0.0688,-0.0778 -0.86933,-3.38463 2.812232,-1.58285 3.725224,1.82314 4.351274,-3.88917 4.560964,-3.88917 0.62103,0 3.05212,2.15527 1.17357,0.0217 -5.08385,-5.77402 1.92932,2.35621 -1.33532,-4.36614 -1.751,-3.60554 -3.11001,-10.0483 -3.10885,-10.92698 8.3e-4,-0.61857 -1.02095,-3.68114 0.11731,-5.12114 0.98913,-1.25134 3.83515,-3.4867 4.18579,-6.72827 0.10987,-1.01569 1.65867,-2.01214 2.67063,-1.7632 -0.1942,-0.37917 -0.38234,-0.76164 -0.5643,-1.14773 -0.29703,-0.74594 -0.65088,-1.47191 -0.8909,-2.23811 -0.38481,-1.22941 -0.66808,-2.63385 -0.57568,-3.98218 -0.28149,-0.52578 -0.60858,-1.18294 -0.81855,-1.80558 z m 12.77441,17.44027 c -0.004,0.0182 -0.008,0.0365 -0.0129,0.0538 -0.009,0.0336 -0.0174,0.0676 -0.0263,0.1018 5.51859,8.65762 12.52288,19.03647 18.7203,26.26506 5.68185,6.62724 7.5139,6.86282 8.16746,6.73809 0.23651,-0.0451 0.70432,-0.3003 0.80667,-2.25102 0.13391,-2.55215 0.5189,1.36409 1.30741,-0.90796 0.6216,-1.79111 2.64608,-3.27245 2.83291,-3.26543 0.0818,0.003 2.78828,-0.74596 3.25509,0.0382 0.73929,1.24214 0.91658,2.70333 1.4671,3.80287 -0.80118,-3.16493 -0.48524,-4.73668 -0.48524,-7.80573 0,-0.90947 1.03491,-4.48481 1.12551,-4.5408 0.0906,-0.056 5.84476,1.96347 6.44767,2.84427 6.56353,9.58887 10.82115,13.63962 23.2053,18.81435 -2.78724,-3.80471 -0.73151,-2.03878 -5.20123,-6.51691 -3.53596,-3.5426 -5.4196,-3.60714 -8.83151,-7.67757 -1.35936,-1.62171 -2.99333,-4.35648 -3.98373,-5.25498 -0.99041,-0.89851 -1.16718,-3.2157 -2.62361,-4.56251 -1.45644,-1.3468 -4.11849,-0.65703 -4.97644,-1.28519 -0.85795,-0.62815 -0.55778,-1.31979 -1.09399,-1.77147 -0.53622,-0.45167 -1.26587,-0.93736 -1.85571,-1.31413 -0.58984,-0.37679 -1.27543,-0.0403 -1.75803,-0.42633 -0.48259,-0.38604 -0.66814,0.26271 -0.88263,0.26768 -0.2312,0.006 1.01422,-2.26857 0.54157,-1.66811 -0.43847,0.55705 -2.64026,1.83831 -5.55935,5.56503 -2.9191,3.72672 -6.89181,6.50245 -6.98769,6.50245 -0.0959,0 -2.97479,-0.78424 -4.50257,-2.74144 -1.76232,-2.25767 -3.5347,-3.27969 -6.95203,-7.4843 -0.4122,0.33298 -0.86592,0.62282 -1.31051,0.90486 -0.0899,0.0571 -0.11584,-0.1787 -0.17364,-0.2682 -0.0392,-0.0593 -0.0784,-0.1186 -0.11782,-0.17777 -0.0862,-0.0143 -0.12792,-0.12196 -0.16329,-0.24391 -0.40982,-0.60775 -0.83112,-1.2072 -1.25419,-1.80558 -0.78827,-0.22534 -1.73351,-1.37215 -2.11822,-1.79265 -1.86848,-2.10296 -3.61967,-4.30666 -5.42344,-6.46472 -0.28173,-0.34207 -0.5642,-0.68359 -0.84698,-1.02475 -0.24591,-0.21508 -0.49112,-0.4306 -0.73587,-0.64699 z m 66.81091,39.88749 c 0.38301,0.52283 0.85775,1.15073 1.45314,1.91461 1.80837,2.32011 2.54777,1.35806 2.06292,1.35806 -0.37655,0 -0.60722,-2.07812 -2.62671,-2.90525 -0.30092,-0.12325 -0.59758,-0.2455 -0.88935,-0.36742 z m -30.29324,-9.31209 c 0.0688,0.27191 0.1458,0.55579 0.23203,0.85318 0.27748,0.95698 1.36305,1.47974 1.59938,1.67535 -0.0234,-0.28977 -0.21717,-0.82156 -1.06402,-1.52136 -0.3304,-0.27302 -0.57227,-0.61747 -0.76739,-1.00717 z m 1.83141,2.52853 c 0.005,0.06 0.002,0.10973 -0.003,0.14831 0.0117,-0.0229 0.0272,-0.0499 0.0465,-0.0811 0.009,-0.015 -0.007,-0.0374 -0.0434,-0.0672 z m -0.003,0.14831 c -0.0271,0.0532 -0.0349,0.085 -0.0341,0.0951 v 5.2e-4 5.2e-4 5.1e-4 5.2e-4 h 5.2e-4 v 5.2e-4 h 5.2e-4 5.1e-4 5.2e-4 5.2e-4 5.1e-4 5.2e-4 v -5.2e-4 l 5.2e-4,-5.2e-4 c 0.008,-0.008 0.0221,-0.0412 0.03,-0.0966 z m -84.607755,-6.95668 c -0.07206,0.0937 -0.156816,0.17585 -0.256315,0.24391 -0.134685,0.0921 -0.264765,0.16761 -0.389641,0.22738 0.04714,0.0822 0.09699,0.16571 0.149862,0.25114 0.0698,0.11281 0.506623,0.8018 0.80977,0.8506 0.06106,0.01 0.0019,-0.14014 -0.04548,-0.17984 -0.09204,-0.0771 -0.222319,-0.0917 -0.333313,-0.13746 0.06754,-0.35218 0.153638,-0.69997 0.205673,-1.05316 -0.05037,-0.0619 -0.09629,-0.13178 -0.14056,-0.20257 z m 33.480645,17.75705 c -0.47207,-0.0141 -0.75399,0.11033 -0.91622,0.32143 1.04684,-0.11951 1.91231,-0.2609 0.91622,-0.32143 z m -2.42673,0.47284 c -0.56852,0.0509 -0.8006,0.0657 -0.0956,0.006 0.034,-0.003 0.0659,-0.005 0.0956,-0.006 z" /><path
       id="path2"
       style="display:inline;fill:#944730;stroke-width:0.552723"
       d="m 83.991772,99.212032 c -0.518062,0.01322 -3.759941,2.509078 -5.229654,4.053498 -4.611557,4.84596 -7.509791,11.50838 -8.589657,19.74608 -0.389427,2.97158 -0.389757,8.67563 -0.001,11.83391 1.046361,8.49741 4.34174,16.72756 9.074382,22.6627 0.577778,0.72457 1.132636,1.28971 1.233,1.25625 0.24584,-0.0819 19.994217,-28.44779 20.000837,-28.72848 0.003,-0.1216 -0.46993,-0.4137 -1.05109,-0.64957 -1.348852,-0.54746 -4.327958,-2.31456 -5.853906,-3.47214 -1.549738,-1.17563 -4.999183,-4.53704 -6.047693,-5.8937 -1.16938,-1.51305 -2.519921,-3.90736 -3.307291,-5.86321 -1.024998,-2.54611 -1.362854,-4.48854 -1.372527,-7.88375 -0.0086,-3.02836 0.176768,-4.23938 0.919324,-6.0017 0.21601,-0.512775 0.342758,-0.982231 0.281637,-1.043351 -0.01177,-0.01177 -0.03084,-0.01719 -0.05633,-0.01654 z m 49.414038,16.323548 -5.2e-4,5.2e-4 h -5.1e-4 v 5.2e-4 h -5.2e-4 -5.2e-4 c -0.0455,0.0352 -0.0499,0.79729 -0.003,1.72341 0.19314,4.03972 -1.03321,8.77984 -3.21117,12.41216 l -0.70177,1.16995 -0.16484,3.36414 c -0.10967,2.23722 -0.32999,4.17882 -0.65733,5.79551 -0.48923,2.41622 -1.38759,5.21189 -1.95182,6.07301 -0.16227,0.24766 -0.29507,0.55255 -0.29507,0.67748 0,0.12494 2.12773,3.76573 4.72839,8.09098 2.60066,4.32525 4.82001,7.86745 4.932,7.87187 0.11199,0.004 0.74334,-0.7211 1.40302,-1.61179 10.53097,-14.21871 10.34003,-29.47769 -0.52762,-42.13747 -1.47588,-1.71925 -3.24544,-3.43029 -3.54759,-3.43029 h -5.1e-4 z m -26.12502,25.2858 c -0.13538,0.30326 -0.26921,0.60741 -0.40049,0.9126 -0.359,0.80995 -0.74222,1.60946 -1.16324,2.38901 -0.41311,0.77048 -0.95165,1.46289 -1.46658,2.16627 -0.63659,0.85116 -1.32104,1.65936 -2.03553,2.44533 -0.58679,0.6457 -1.21479,1.2533 -1.79421,1.90583 -0.40365,0.44986 -0.770511,0.93072 -1.067115,1.45727 -0.327897,0.59376 -0.697981,1.16509 -1.001489,1.77199 -0.364549,0.77587 -0.874734,1.46441 -1.366325,2.16162 -0.536736,0.67346 -1.026961,1.37981 -1.521871,2.0836 -0.48734,0.67261 -1.067413,1.26515 -1.633492,1.86913 -0.519056,0.47047 -0.933133,1.02571 -1.329634,1.59887 -0.547483,0.77224 -1.103697,1.53911 -1.69447,2.27893 -0.605718,0.73346 -1.205879,1.47027 -1.783354,2.22622 -0.443682,0.56491 -0.849984,1.15733 -1.289327,1.72548 -0.342755,0.42461 -0.635289,0.88405 -0.939994,1.33532 -0.420949,0.63835 -0.909899,1.22748 -1.359091,1.84536 -0.825675,1.123 -1.690397,2.21463 -2.497522,3.35225 -0.621294,0.89023 -1.23748,1.78604 -1.805574,2.71147 -0.49797,0.80846 -1.00393,1.60248 -1.696537,2.25722 -0.435689,0.30729 -0.956149,0.55628 -1.492932,0.64389 -0.517067,0.65714 -1.019168,1.32595 -1.509986,2.00401 -0.600292,0.91273 -1.230964,1.81103 -1.767334,2.76418 0.36446,0.38395 0.73011,0.76675 1.101225,1.14411 0.41757,0.42523 0.820317,0.863 1.21543,1.30897 1.78354,2.01308 -0.257592,3.8174 -2.035535,1.79937 -0.262483,-0.29793 -0.530167,-0.5908 -0.803569,-0.8785 -0.297625,0.13064 -0.648238,0.1348 -0.984952,-0.0212 -0.32059,0.95194 -0.563729,1.9291 -0.785999,2.91042 -0.447728,1.65392 -0.791482,3.32415 -1.052649,5.01675 -0.226639,1.65259 -0.41993,3.31262 -0.42633,4.98212 0.02537,1.5664 0.471324,3.08169 0.8816,4.58112 0.550949,2.08946 1.180657,4.15676 1.81746,6.22132 0.397553,1.32787 0.856476,2.63388 1.348755,3.92741 0.884463,0.001 1.769218,0.003 2.653584,0.009 1.276676,0.0105 2.552937,0.0265 3.829224,0.061 1.577404,0.0475 3.154939,0.11443 4.725293,0.27853 1.500465,0.15895 2.998834,0.34567 4.492749,0.55707 1.070764,0.13417 2.138477,0.29007 3.207039,0.43925 0.696202,-0.0507 1.39347,-0.0874 2.090312,-0.12247 1.425139,-0.0668 2.851891,-0.0932 4.27829,-0.11317 1.38981,-0.0162 2.77988,-0.0182 4.16977,-0.0212 1.60064,-0.01 3.19914,-0.0214 4.79713,0.0796 0.28124,0.0241 0.56262,0.0486 0.84387,0.0734 0.0493,-0.97832 0.10341,-1.95672 0.15865,-2.9347 0.19253,-3.33614 0.37491,-6.67375 0.38809,-10.01644 -0.005,-0.006 -0.0104,-0.0102 -0.0155,-0.0155 -0.64605,-0.70793 -1.27912,-1.42554 -1.87534,-2.17661 -0.0664,-0.087 -0.1321,-0.17399 -0.19689,-0.262 -0.38982,-0.16387 -0.74892,-0.47279 -1.05213,-0.77618 -0.59076,-0.65829 -1.10054,-1.37801 -1.25729,-2.26963 -0.0366,-0.4283 -0.0291,-0.79212 0.0403,-1.11776 -0.14866,-0.39864 -0.27559,-0.8063 -0.36742,-1.2237 -0.17493,-0.81444 -0.29576,-1.63139 -0.21756,-2.46755 0.0742,-0.83101 0.21321,-1.67646 0.72037,-2.36368 0.15289,-0.11717 0.2735,-0.29911 0.45889,-0.3514 1.0288,-0.29008 1.46432,0.31209 1.83296,1.07487 0.46786,0.39654 0.90108,0.8323 1.32705,1.27331 0.2035,0.20072 0.40793,0.39992 0.61754,0.59376 0.0268,0.0124 0.0538,0.0247 0.0806,0.0372 -6e-4,-0.40989 -0.002,-0.81946 -0.005,-1.22938 -0.12192,-0.17423 -0.24408,-0.34923 -0.36742,-0.52245 -0.43267,-0.6694 -0.88301,-1.3253 -1.34152,-1.97714 -0.59613,-0.88112 -1.08458,-1.83014 -1.57561,-2.77244 -0.4657,-0.93921 -0.96254,-1.86511 -1.45934,-2.78846 -0.28529,-0.59083 -0.65388,-1.13339 -1.03405,-1.66605 -1.02534,-1.43663 -0.42075,-2.61173 0.55552,-2.62878 0.36471,-0.006 0.7812,0.14941 1.18391,0.51263 -1.09523,-2.41378 -2.05216,-4.8919 -2.86184,-7.13238 -1.03753,-2.87096 -1.78896,-3.89757 -0.79633,-5.2095 0.34606,-0.45737 0.9358,-1.48737 1.22731,-1.87379 0.7007,-0.92886 0.74851,-1.55488 1.02061,-4.57853 0.0173,-0.19191 0.37527,-1.17629 0.39377,-1.35599 -0.22984,-0.45797 2.00599,-0.35133 1.86449,-0.88987 -0.14105,-0.3054 -0.057,-0.1692 -0.24495,-0.41341 -0.76127,-0.98897 -0.26208,-1.83158 0.45321,-1.83658 0.37467,-0.003 0.80836,0.22461 1.15186,0.78083 0.39419,0.63831 0.23039,0.31017 0.49765,0.98082 0.16492,0.62768 0.23461,1.03716 0.66507,1.54409 0.11061,-2.32544 0.21215,-4.65076 0.23565,-6.9789 -0.47699,-0.76809 -0.94073,-1.54437 -1.40612,-2.32131 -0.63352,-0.89932 -1.25511,-1.81037 -1.96835,-2.64945 -1.25198,-1.47288 -0.78191,-2.89551 0.28318,-2.86856 0.41678,0.0105 0.92422,0.24313 1.45573,0.78135 0.56438,0.57151 1.05712,1.20657 1.52704,1.8588 -0.0764,-1.5348 -0.2014,-3.06751 -0.40463,-4.593 -0.0508,-0.38546 -0.10236,-0.77075 -0.15503,-1.156 -0.42521,-0.37263 -0.83888,-0.75911 -1.24178,-1.15652 -0.35044,-0.33105 -0.69942,-0.66307 -1.0418,-1.00252 z m 4.44159,3.84886 c 0.27785,2.38159 0.38207,4.77731 0.42013,7.17372 0.57665,0.94534 1.16335,1.88348 1.79782,2.79415 0.85583,1.24251 1.72018,2.47712 2.73317,3.59719 0.93067,0.91 1.76422,1.91402 2.60552,2.90577 0.39799,0.47942 0.80097,0.95463 1.20458,1.42937 -0.0724,-0.55645 -0.1301,-1.11477 -0.16795,-1.67535 -0.0949,-1.15423 -0.13544,-2.31381 -0.30799,-3.46077 -0.1983,-1.23882 -0.46301,-2.46463 -0.91984,-3.63751 -0.04,-0.0982 -0.0805,-0.19634 -0.12144,-0.29403 -0.22908,-0.16722 -0.44867,-0.41132 -0.63924,-0.74156 -0.61757,0.69423 -1.86203,0.4455 -2.38796,-1.18443 -0.13247,-0.41058 -0.0599,-0.19976 -0.21859,-0.63148 -0.37879,-0.94581 -0.74665,-1.89651 -1.14567,-2.83394 -0.3319,-0.71575 -0.6488,-1.43859 -0.97824,-2.15542 -0.57622,-0.44241 -1.17836,-0.84497 -1.79627,-1.23197 -0.0261,-0.0179 -0.052,-0.0358 -0.078,-0.0537 z m 0.37,12.0742 c -0.0677,2.10742 -0.1767,4.21366 -0.27595,6.32003 0.11936,0.1293 0.24149,0.25613 0.36742,0.37982 0.49517,0.45267 1.02014,0.874 1.48673,1.35702 0.44834,0.4482 0.87018,0.9263 1.19321,1.47485 0.30064,0.44438 0.59193,0.89421 0.91519,1.32291 0.35827,0.53723 0.79603,1.01912 1.15032,1.56011 0.47165,0.68941 0.94262,1.37849 1.39216,2.08256 0.38959,0.56327 0.77439,1.13063 1.1467,1.70533 0.344,0.59442 0.65951,1.20345 0.98754,1.8066 0.27408,0.49971 0.5328,1.00827 0.81338,1.50431 0.34641,0.51147 0.75504,0.97851 1.09089,1.4981 0.30538,0.42985 0.62459,0.85036 0.95602,1.26038 0.36374,0.46006 0.78968,0.86917 1.2237,1.26142 0.42529,0.35131 0.84376,0.71196 1.28105,1.048 0.50084,0.40774 0.98262,0.83683 1.42317,1.31 0.43935,0.4829 0.8737,0.97024 1.24385,1.50947 0.42992,0.66137 0.91226,1.28764 1.32447,1.96112 0.44072,0.70532 0.88592,1.408 1.3286,2.11202 0.3814,0.59892 0.77735,1.18653 1.18908,1.76526 0.36081,0.54507 0.80659,1.0295 1.264,1.49448 0.49773,0.49363 1.01293,0.96948 1.50637,1.46762 0.52525,0.47034 1.0407,0.95598 1.51309,1.47949 0.4176,0.4621 0.86888,0.8928 1.30431,1.3379 0.39415,0.44746 0.84935,0.8341 1.23868,1.28571 0.5135,0.54055 0.98159,1.1228 1.41387,1.73013 0.31994,0.45752 0.63037,0.9255 1.00873,1.3379 0.32219,0.36259 0.65587,0.72103 1.03404,1.02526 0.40298,0.3303 0.84264,0.61548 1.22215,0.97514 0.42524,0.36513 0.85759,0.72339 1.19166,1.17925 0.29817,0.40116 0.61122,0.79169 0.88986,1.20665 0.0388,-0.38164 0.0973,-0.76062 0.19844,-1.13223 0.17832,-0.61452 0.41588,-1.20633 0.63562,-1.80661 0.21623,-0.62968 0.40771,-1.2669 0.60152,-1.90376 0.22373,-0.66249 0.47139,-1.31636 0.66456,-1.98902 0.22182,-0.64921 0.40355,-1.31166 0.6506,-1.95234 0.31588,-0.72581 0.70959,-1.38311 1.42162,-1.78594 0.18087,-0.0592 0.3526,-0.16686 0.5426,-0.17776 0.91456,-0.0525 1.29017,0.52216 1.71411,1.18907 0.39115,0.59422 0.7134,1.22629 1.07642,1.83761 0.35547,0.60862 0.71731,1.21533 1.09812,1.80816 0.29825,0.46624 0.62983,0.90899 0.96687,1.34772 0.33247,0.46125 0.58677,0.96637 0.894,1.44384 0.28738,0.36884 0.59862,0.6327 1.05317,0.78445 0.0946,0.0413 0.18863,0.0835 0.28267,0.12609 -0.002,-0.008 -0.004,-0.0163 -0.007,-0.0243 -0.21185,-0.69123 -0.42947,-1.38159 -0.58962,-2.08721 -0.18757,-0.7113 -0.37218,-1.42326 -0.57051,-2.13165 -0.21167,-0.77141 -0.36159,-1.55863 -0.46251,-2.35231 -0.1416,-0.98263 -0.26317,-1.97117 -0.27647,-2.96519 0.007,-0.81616 0.0167,-1.63261 0.0579,-2.44792 0.0464,-0.84494 0.0957,-1.69846 0.3514,-2.51147 0.18672,-0.48218 0.41916,-1.12739 0.9834,-1.30638 0.73149,-0.23203 1.16747,0.0586 1.61954,0.52503 0.45157,0.51538 0.88861,1.0414 1.28416,1.60197 0.50269,0.67137 0.97958,1.36261 1.51567,2.00866 0.45176,0.53152 0.93708,1.03345 1.38958,1.56476 0.35408,0.40165 0.6995,0.81725 1.13533,1.13482 0.50077,0.38893 1.00229,0.77823 1.48053,1.19476 0.21782,0.18222 0.42836,0.37296 0.63097,0.57102 0.10587,-0.0416 0.22493,-0.0628 0.3545,-0.0594 0.29065,0.007 0.63087,0.13839 0.9772,0.43563 0.0268,-0.002 0.0535,-0.002 0.0801,-0.002 0.48085,0.007 0.91598,0.34411 0.89245,0.90847 0.44203,0.40509 0.88788,0.80693 1.3224,1.2206 0.70767,0.66793 1.39548,1.35499 2.03657,2.08721 0.37325,0.44743 0.73347,0.90608 1.08934,1.36788 0.0697,0.074 0.127,0.14976 0.17363,0.22634 0.2589,0.33756 0.51613,0.67634 0.77618,1.01286 0.13712,0.19116 0.2767,0.38111 0.41703,0.56947 0.34824,0.2573 0.71645,0.47306 1.12758,0.62994 0.64551,0.23379 1.30512,0.42816 1.9327,0.70693 0.7046,0.37665 1.25059,0.7627 1.75648,1.39113 0.48482,0.56721 0.99399,1.11264 1.47588,1.68258 0.41657,0.46416 0.8451,0.90987 1.37511,1.24747 0.52317,0.30941 1.06505,0.59642 1.63349,0.81339 0.6596,0.29443 1.30699,0.61482 1.87534,1.06815 0.43229,0.33206 0.84667,0.68891 1.31258,0.9741 0.3975,0.23179 0.82003,0.42456 1.24902,0.59015 0.43668,0.1321 0.87227,0.25453 1.3255,0.31884 0.51838,0.0548 1.03929,0.0569 1.55856,0.1018 0.61021,0.0653 1.22451,0.15493 1.77612,0.44235 0.55598,0.33317 1.01682,0.75735 1.35599,1.31569 0.10091,0.14114 0.20317,0.28514 0.31316,0.42064 0.003,5.5e-4 0.005,10e-4 0.008,0.002 0.36922,0.0905 0.71675,0.22282 1.04903,0.38499 -0.047,-0.0488 -0.0935,-0.0978 -0.13952,-0.1478 -0.46425,-0.55173 -0.90361,-1.12291 -1.31104,-1.71772 -0.43863,-0.64158 -0.91619,-1.25496 -1.38854,-1.87172 -0.40715,-0.5518 -0.8431,-1.08231 -1.28984,-1.60249 -0.42121,-0.46652 -0.85977,-0.91382 -1.3162,-1.34565 -0.49585,-0.48149 -1.03995,-0.90813 -1.55753,-1.36529 -0.57965,-0.5073 -0.97144,-1.17092 -1.39371,-1.80403 -0.29638,-0.50605 -0.60525,-1.00473 -0.91054,-1.50533 -0.28137,-0.27753 -0.56406,-0.55336 -0.84543,-0.83096 -0.61225,-0.63004 -1.2498,-1.23758 -1.81178,-1.91461 -0.46629,-0.61489 -0.92261,-1.23706 -1.43453,-1.81539 -0.60843,-0.75775 -1.20843,-1.52191 -1.72496,-2.34663 -0.7369,-1.05512 -1.52235,-2.08313 -2.40864,-3.0179 -0.62783,-0.72201 -1.26883,-1.4326 -1.99574,-2.05776 -0.44059,-0.43678 -0.9271,-0.82765 -1.39372,-1.2361 -0.56845,-0.45858 -1.15894,-0.89126 -1.69654,-1.38699 -0.66027,-0.62264 -1.26208,-1.30376 -1.8588,-1.98696 -0.49776,-0.5297 -0.98634,-1.06834 -1.46967,-1.61127 -0.43158,-0.49913 -0.87177,-0.99027 -1.31104,-1.4826 -0.52049,-0.60478 -1.04402,-1.20623 -1.57613,-1.80093 -0.54018,-0.58732 -1.0528,-1.20052 -1.6309,-1.75234 -0.48167,-0.44072 -0.95497,-0.89263 -1.48932,-1.27073 -0.57627,-0.42119 -1.17416,-0.80867 -1.77043,-1.20096 -0.59715,-0.44543 -1.1816,-0.90603 -1.77457,-1.35702 -0.62156,-0.50082 -1.2409,-1.00605 -1.91151,-1.44126 -0.58327,-0.3615 -1.169,-0.71379 -1.78853,-1.01182 -0.57741,-0.36921 -1.1072,-0.80271 -1.65157,-1.21801 -0.38014,-0.29871 -0.0178,1.86493 -0.45786,1.65571 -0.11133,-0.0529 -0.57391,-1.6179 -0.66249,-1.67638 -0.77146,0.93495 -0.63754,2.9002 -1.91771,4.5377 -2.14488,2.74355 -4.594,6.28917 -5.77433,7.79591 -1.18033,1.50674 -4.01354,3.45261 -4.13721,3.49384 -0.12368,0.0412 -2.93543,-2.68214 -4.58887,-4.8059 -1.97643,-2.53863 -3.11733,-4.10132 -6.36343,-9.36429 -0.25618,0.77317 -1.33611,1.11944 -2.58693,0.17311 -0.88146,-0.66688 -1.71562,-1.39063 -2.53679,-2.1301 -0.51437,-0.42981 -1.02356,-0.8688 -1.49138,-1.34824 -0.60451,0.0774 -1.33391,-0.36161 -1.7446,-1.48001 -0.22828,-0.62163 -0.14454,-0.39942 -0.32763,-0.8754 -0.0264,-0.0352 -0.0524,-0.0706 -0.078,-0.10645 -0.62609,-0.84637 -1.33096,-1.63327 -1.97301,-2.46755 -0.92386,-1.11865 -1.87921,-2.21138 -2.80551,-3.32796 -0.82335,-0.9712 -1.63962,-1.95269 -2.55127,-2.84324 -0.93566,-1.04067 -1.76548,-2.16271 -2.56315,-3.31039 z m -47.755739,3.55844 c -0.842113,0.64117 -1.684984,1.28409 -2.425175,2.04483 -0.809446,0.79104 -1.577983,1.62118 -2.337325,2.46032 -0.67257,0.83702 -1.303541,1.70211 -1.893424,2.60036 -0.745463,1.0907 -1.452834,2.20364 -2.121834,3.34346 -0.722475,1.1658 -1.456979,2.32566 -2.248959,3.44579 -0.910424,1.26839 -1.92995,2.44827 -3.025138,3.56154 -1.11051,1.1066 -2.247606,2.18875 -3.307292,3.34449 -0.685023,0.75444 -1.363168,1.51547 -2.060339,2.25878 -0.590375,0.59537 -1.19188,1.17706 -1.812809,1.74046 -0.236958,0.19286 -0.470559,0.38938 -0.70435,0.58601 -0.671984,1.01957 -1.36845,2.02239 -2.119767,2.98742 -1.06612,1.36217 -2.27357,2.59358 -3.529501,3.77806 -1.177908,1.09841 -2.377535,2.17278 -3.553271,3.2737 -0.01724,0.0164 -0.03443,0.0328 -0.05168,0.0491 -0.285526,0.68399 -0.606974,1.35316 -0.995804,1.98541 -0.494891,0.79171 -1.045032,1.53746 -1.698605,2.2071 -0.63598,0.71946 -1.259059,1.45699 -1.975073,2.09909 -0.610958,0.56633 -1.206122,1.14914 -1.795756,1.73736 -0.657829,0.64916 -1.294217,1.31912 -1.942517,1.97766 -0.528895,0.54187 -1.09285,1.04448 -1.669666,1.53479 -0.573699,0.54529 -1.167786,1.06887 -1.733227,1.62316 -0.625606,0.57566 -1.284781,1.114 -1.882573,1.71927 -0.682215,0.67478 -1.41155,1.30522 -2.016931,2.05414 -0.364637,0.4632 -0.741309,0.91788 -1.028361,1.43557 -0.286829,0.45998 -0.605487,0.90068 -0.831474,1.39578 0.864734,0.48359 0.83026,1.82004 -0.78083,2.57556 -0.0371,0.0174 -0.07413,0.0351 -0.111105,0.0527 -0.02243,0.0673 -0.04564,0.13422 -0.06976,0.20102 1.847935,0.11304 3.693548,0.25769 5.526794,0.52503 1.650419,0.18336 3.300689,0.3648 4.957837,0.47749 1.511477,0.12999 3.022,0.18896 4.539775,0.15916 1.577465,0.0112 3.15488,0.0215 4.731494,0.0791 1.562095,0.0599 3.122848,0.14534 4.681368,0.2682 1.7823,0.1076 3.569775,0.16478 5.355229,0.16278 1.900972,-0.0105 3.802473,-0.0208 5.703011,-0.0656 1.74059,-0.0481 3.479729,-0.12449 5.218286,-0.22169 1.799988,-0.0844 3.603191,-0.0984 5.401737,-0.21859 1.034569,-0.0614 2.068843,-0.12602 3.103687,-0.17932 0.164357,-0.44534 0.602697,-0.8932 1.373043,-1.19838 0.212755,-0.0843 0.427752,-0.1602 0.644922,-0.22892 -0.297211,-0.73225 0.263675,-1.68249 1.790071,-1.8464 0.43871,-0.0471 0.876927,-0.097 1.315682,-0.14366 0.907522,-0.0809 1.819186,-0.10939 2.725932,-0.20309 0.401196,-0.0211 0.80249,-0.027 1.204061,-0.0274 -0.409386,-1.10728 -0.791759,-2.2242 -1.131197,-3.3569 -0.642861,-2.08424 -1.278088,-4.17143 -1.834514,-6.28075 -0.456185,-1.66809 -0.935837,-3.35521 -0.950329,-5.0984 0.01166,-1.76426 0.204173,-3.51913 0.449068,-5.26531 0.202004,-1.30649 0.450412,-2.60091 0.756543,-3.88452 -0.322078,0.10154 -0.65333,0.17867 -0.984953,0.24753 -0.611273,0.0849 -1.101839,0.038 -1.403532,-0.27388 -0.182902,0.15321 -0.375057,0.29675 -0.572058,0.43459 -0.567437,0.84888 -1.158657,1.6826 -1.881022,2.40968 -0.627225,0.60231 -1.281661,1.17713 -2.038118,1.6123 -0.277915,0.2338 -0.564228,0.45865 -0.857829,0.67386 -0.672554,0.46128 -1.061735,0.75127 -1.790589,1.15084 -0.623024,0.34155 -1.26892,0.63682 -1.933215,0.8785 -0.189866,0.17206 -0.37522,0.35021 -0.556038,0.53278 -0.896827,0.82697 -1.799209,1.64959 -2.758488,2.4045 -0.395407,0.29027 -0.798294,0.57012 -1.19631,0.85628 -0.453891,0.37408 -0.909442,0.7445 -1.389062,1.08572 -0.04267,0.0377 -0.08498,0.0757 -0.127124,0.11421 -0.865796,0.70732 -1.73124,1.41442 -2.64325,2.06241 -0.855207,0.63 -1.744233,1.21577 -2.697509,1.68878 -0.612877,0.3451 -1.189071,0.727 -1.709974,1.20406 -0.669105,0.55458 -1.396947,1.04854 -2.24069,1.29398 -0.357502,0.0683 -0.868862,0.21706 -1.208195,-0.017 -0.880721,-0.61126 -0.727513,-1.36703 -0.236678,-2.08411 0.458318,-0.61557 0.949479,-1.21089 1.667599,-1.53324 0.675859,-0.33773 1.317006,-0.72548 1.930114,-1.16789 0.279092,-0.19706 0.563682,-0.38466 0.851628,-0.56689 0.022,-0.0238 0.04212,-0.0475 0.06408,-0.0713 -0.126568,-0.17552 -0.259036,-0.40635 -0.405143,-0.71004 -0.08958,-0.18621 0.173271,-0.37515 0.259932,-0.56275 0.708823,-1.02282 1.353981,-2.08608 1.930632,-3.18844 0.584168,-1.21005 1.142211,-2.42944 1.780253,-3.6127 0.139198,-0.25744 0.274659,-0.51709 0.40566,-0.77876 -0.632321,0.1897 -1.355338,0.32906 -1.932182,0.19378 -0.244464,-0.0573 -0.472673,-0.16996 -0.709001,-0.25476 -0.04157,-0.12788 -0.09252,-0.25395 -0.144177,-0.37982 -0.01493,-0.0108 -0.02923,-0.0219 -0.04186,-0.0351 -0.06571,-0.069 -0.07404,-0.1763 -0.0801,-0.26924 -3.9e-4,-0.001 -8.15e-4,-0.002 -10e-4,-0.003 -0.01817,-0.0149 -0.03699,-0.029 -0.05633,-0.0424 -0.18349,-0.12718 -0.170852,-0.29396 -0.05891,-0.33848 -0.01395,-0.0663 -0.02443,-0.13355 -0.02997,-0.20154 -0.01409,-0.17241 0.167144,-0.30387 0.272852,-0.4408 0.317208,-0.41089 0.835218,-0.63409 1.187524,-1.00873 0.79349,-0.67562 1.560024,-1.38127 2.350761,-2.05982 0.728312,-0.64127 1.456932,-1.28301 2.098063,-2.01435 0.711045,-0.77553 1.392831,-1.57581 2.035018,-2.40967 0.119062,-0.17162 0.236912,-0.34393 0.353984,-0.51676 0.22146,-0.69726 0.465271,-1.38776 0.720369,-2.07481 0.508129,-1.37006 1.157263,-2.67969 1.853634,-3.96203 0.512203,-0.94688 1.064499,-1.87028 1.635042,-2.78278 0.335133,-0.42285 0.642695,-1.30301 1.040247,-1.64331 0.130144,-0.1114 0.281987,-0.19453 0.427364,-0.28577 -0.170648,-0.56283 -0.326861,-1.12993 -0.415995,-1.70946 -0.35028,-0.646 -0.424019,-1.23266 -0.318327,-1.68413 -0.08547,-0.15474 -0.17138,-0.3092 -0.257866,-0.46354 -0.472268,-0.84281 -0.481568,-1.56628 -0.237194,-2.03967 0.0026,-0.64908 0.407149,-1.10335 1.014925,-1.10742 0.422301,-0.003 0.942666,0.21177 1.494482,0.72915 0.898745,0.84266 1.615377,1.85835 2.40037,2.80448 1.078368,1.23894 2.075932,2.54571 2.999817,3.90312 0.961418,1.38158 1.894021,2.78234 2.809648,4.19458 0.725512,1.15398 1.531714,2.25218 2.436027,3.27163 0.500872,-0.83332 1.056187,-1.63484 1.592151,-2.44481 0.366886,-0.50662 0.73985,-1.00847 1.120345,-1.5043 -0.690627,-0.67361 -1.06347,-1.57011 -1.441256,-2.44223 -0.231243,-0.5289 -0.356359,-1.0985 -0.596346,-1.62316 -0.201916,-0.39551 -0.395592,-0.79447 -0.584977,-1.19579 -0.661527,-0.7441 -1.237814,-1.55343 -1.767334,-2.39727 -0.848833,-1.43118 -1.611292,-2.91092 -2.348177,-4.40231 -0.281425,-0.36122 -0.565346,-0.72026 -0.829924,-1.09399 -0.439144,-0.64592 -0.86216,-1.29914 -1.250569,-1.97714 -0.401979,-0.683 -0.825829,-1.35423 -1.266073,-2.01332 -0.37736,-0.56606 -0.810633,-1.08889 -1.282609,-1.57768 -0.0966,-0.10291 -0.19434,-0.20457 -0.292489,-0.30592 z m 58.766959,1.29191 c 0.0835,0.78505 0.20312,1.5659 0.34209,2.34352 0.21564,1.19445 0.5753,2.3504 1.00046,3.48403 0.3382,0.40061 0.7064,0.77559 1.05213,1.16944 0.53536,0.6952 1.19937,1.26714 1.86966,1.82624 0.62833,0.55912 1.25659,1.11899 1.91306,1.64435 -1.10707,-1.81702 -2.41829,-3.98761 -4.00183,-6.61976 -0.76446,-1.27068 -1.4905,-2.56457 -2.17557,-3.84782 z m -10.64328,44.79003 c -0.0644,2.58585 -0.20753,5.16897 -0.35657,7.75146 -0.0562,1.00084 -0.11171,2.0021 -0.16175,3.00344 0.70274,0.0712 1.40488,0.14935 2.1053,0.23926 1.26436,0.20032 2.53899,0.30739 3.81579,0.38499 0.42695,0.0227 0.85426,0.0399 1.28158,0.0532 -0.57632,-0.53781 -1.0327,-1.19135 -1.46762,-1.84692 -0.51778,-0.7893 -0.99061,-1.60781 -1.44022,-2.43758 -0.40623,-0.79529 -0.76549,-1.6129 -1.14153,-2.42259 -0.33858,-0.79228 -0.73604,-1.55676 -1.10174,-2.33629 -0.0272,-0.0577 -0.0542,-0.11509 -0.0816,-0.1726 -0.0988,-0.0946 -0.19554,-0.20575 -0.29249,-0.32918 -0.38407,-0.63101 -0.73952,-1.27973 -1.1591,-1.88722 z" /><path
       style="display:inline;fill:#192938;stroke-width:0.552723"
       d="m 50.535575,222.59468 c -23.34338,-0.0593 -42.5061657,-0.17157 -42.5839836,-0.24939 -0.077812,-0.0778 0.2500962,-0.60429 0.7286826,-1.16993 7.090084,-8.37977 52.633724,-61.84813 53.437389,-62.73564 l 0.788531,-0.8708 0.533068,0.63852 c 0.293187,0.35119 3.681187,5.10629 7.528886,10.56689 4.237718,6.01411 7.119418,9.93017 7.309328,9.93295 0.318424,0.004 1.264956,-1.3967 2.196555,-3.25206 0.280109,-0.55785 0.88559,-1.47917 1.345522,-2.04738 0.459926,-0.5682 1.343028,-1.69118 1.962443,-2.49551 1.32008,-1.71416 2.960579,-3.76762 5.020766,-6.28463 0.864564,-1.05628 3.576368,-5.17027 6.525338,-9.89941 8.948,-14.34951 10.87314,-17.16739 12.19588,-17.85141 1.31988,-0.68253 2.12679,-0.14473 3.74152,2.4937 0.47664,0.77882 1.92141,3.12706 3.21059,5.21831 1.28918,2.09125 4.04925,6.65398 6.1335,10.1394 12.62841,21.11809 14.51696,24.13298 17.57954,28.06391 1.6231,2.08332 3.05535,3.82178 3.18277,3.86325 0.25202,0.082 0.21254,0.13045 7.47037,-9.16321 2.73471,-3.5018 5.07622,-6.4099 5.20335,-6.46246 0.12713,-0.0526 0.52199,0.11351 0.87745,0.36902 0.35547,0.25551 1.02168,0.71125 1.48047,1.01274 0.4588,0.30149 1.4119,0.98689 2.11801,1.52311 0.70611,0.53622 2.10313,1.59691 3.10449,2.35709 1.60484,1.21831 5.38171,4.58162 9.50559,8.46477 0.7403,0.69709 2.45045,2.5836 3.80033,4.19225 2.86567,3.41503 5.83936,6.71995 6.82242,7.58236 1.17172,1.02791 7.41253,7.67709 10.00031,10.65468 3.9111,4.50023 8.87373,10.77818 8.59378,10.8715 -0.30665,0.10221 -4.5085,-1.32739 -6.85384,-2.33189 -7.39568,-3.16756 -15.50951,-8.2438 -22.71616,-14.21187 -3.1837,-2.63653 -8.96259,-8.56266 -10.92896,-11.2074 -0.95991,-1.29108 -1.88299,-2.55641 -2.05129,-2.81187 -0.20274,-0.30774 -0.39293,-0.41073 -0.56363,-0.30523 -0.20445,0.12636 -0.23471,0.84757 -0.1466,3.49432 0.11777,3.53753 0.52236,6.22092 1.42893,9.47724 0.28364,1.01882 0.55947,2.10321 0.61296,2.40976 0.0889,0.50948 0.0574,0.54609 -0.36671,0.42615 -0.25518,-0.0722 -1.0956,-0.43522 -1.8676,-0.80679 -1.85615,-0.89338 -3.86101,-2.90132 -5.40642,-5.41472 -0.63547,-1.0335 -1.22572,-1.87909 -1.31168,-1.87909 -0.25152,0 -0.67362,0.76333 -1.40171,2.53486 -1.062,2.58393 -1.53367,4.676 -1.66705,7.39393 -0.0849,1.73135 -0.19124,2.44569 -0.37281,2.50577 -0.31252,0.1034 -6.26685,-5.867 -9.6786,-9.70472 -9.47735,-10.66063 -20.2036,-24.86273 -26.64937,-35.2851 -1.03069,-1.66657 -1.99589,-3.03013 -2.14487,-3.03013 -0.20506,0 -0.32402,0.59219 -0.48962,2.43735 -0.37438,4.17145 -0.54882,4.67592 -2.49288,7.2095 -0.36817,0.47981 -0.71783,1.11457 -0.77704,1.41058 -0.2053,1.02653 1.81749,6.22486 4.38494,11.26875 3.12491,6.13906 6.71457,11.32249 12.34194,17.82166 0.52467,0.60595 0.9106,1.14507 0.85762,1.19805 -0.053,0.053 -3.23525,-1.44082 -7.07171,-3.31956 -3.83646,-1.87873 -7.09603,-3.41588 -7.24349,-3.41588 -0.40128,0 -0.33467,0.37708 0.41242,2.3348 3.49301,9.15325 8.72559,17.68988 14.47783,23.6197 1.20759,1.24488 2.19562,2.4075 2.19562,2.5836 0,0.35936 7.96615,0.34482 -74.323115,0.13561 z m -6.012136,-14.25074 c 3.951965,-1.98564 10.236395,-6.21546 14.926654,-10.04658 4.832382,-3.94721 10.616835,-9.48407 10.616835,-10.16241 0,-0.15776 -0.620388,-1.0396 -1.378647,-1.95965 -1.640333,-1.99034 -3.30969,-4.76965 -4.849223,-8.07346 -0.618254,-1.32676 -1.247684,-2.43662 -1.398732,-2.46635 -0.175037,-0.0344 -0.612965,0.62703 -1.207557,1.82399 -2.271239,4.57221 -6.266985,10.21787 -11.029685,15.58405 -0.76147,0.85794 -1.385705,1.62571 -1.387191,1.70614 -0.01321,0.71472 4.303735,-1.45623 5.799348,-2.91641 0.581426,-0.56766 1.09212,-1.0321 1.134879,-1.0321 0.169786,0 -0.935324,2.2574 -1.982883,4.05041 -2.45911,4.20906 -5.056881,7.55893 -8.890752,11.46481 -1.481099,1.5089 -2.692906,2.80905 -2.692906,2.88921 0,0.21837 0.712604,-0.044 2.33986,-0.86165 z"
       id="path1" /></g><g
     id="g19"
     style="display:none"><path
       id="path17"
       style="display:inline;fill:#000000;fill-opacity:0;stroke-width:0.552723"
       d="m 120.19783,66.738562 c -0.24926,-0.0069 -0.7652,0.227993 -1.55649,0.660942 -6.70365,3.667831 -13.68084,9.494381 -18.41697,15.378906 -4.908193,6.098334 -8.944225,14.319698 -10.437086,21.26072 -0.973141,4.5246 -1.477579,10.61604 -0.970483,15.07556 0.122682,1.07874 0.407379,2.71387 0.338997,2.78226 -0.365472,0.36547 -3.792796,-3.71257 -4.943367,-6.23734 -2.35501,-5.16773 -4.205767,-9.27186 -2.253609,-13.47463 0.0028,-0.006 0.0059,-0.0118 0.0088,-0.0176 -0.336912,0.51138 -0.875108,1.30732 -1.840198,2.21743 -3.367787,3.17591 -4.408486,6.10839 -6.126758,11.27787 -1.57158,4.72816 -1.364394,7.51611 -1.35754,13.23123 0.0039,3.30029 -0.481131,4.69159 -0.146761,6.89519 0.815488,5.37436 1.539772,7.50876 3.786332,12.10624 2.0122,4.11788 3.756337,8.09285 4.487065,7.81244 0.276218,-0.10599 18.358718,-23.43417 21.271058,-27.89804 2.93299,-4.49554 5.96517,-8.37 6.17017,-8.3721 0.12019,-0.001 1.95733,2.69569 4.08295,5.99343 2.12562,3.29775 5.93839,9.1985 8.47287,13.1129 2.53448,3.91439 5.6506,8.13198 5.95622,8.6682 0.30562,0.53622 2.56405,3.35892 4.824,7.76594 2.27186,4.43024 4.45192,6.97011 4.58783,6.97011 0.13589,0 -0.42904,-1.8401 0.38033,-2.93935 6.87337,-9.33505 7.9308,-15.91435 5.47564,-25.46253 -1.15591,-4.49536 -1.90626,-6.56809 -5.19917,-10.64741 -0.27029,-0.33485 -0.48236,-0.65706 -0.65061,-0.95912 5.51354,11.09253 -1.42983,4.42343 -2.127,6.55723 -0.86939,2.66091 -4.11427,4.00148 -4.38681,3.91139 -0.1482,-0.049 -0.20368,-3.29847 -0.23358,-4.21422 -0.20008,-6.12768 -1.63357,-12.17968 -3.96874,-16.7535 -1.31159,-2.56891 -2.61987,-4.38532 -4.48087,-6.22236 -4.93142,-4.86791 -7.44463,-11.177086 -7.46311,-18.735804 -0.0152,-6.193455 1.61725,-11.227899 5.56142,-17.152441 1.19734,-1.798529 1.59982,-2.579344 1.15548,-2.591573 z M 81.967607,102.16741 c 0.02474,-0.0376 0.04814,-0.0736 0.0708,-0.10801 -0.02675,0.0323 -0.05058,0.0681 -0.0708,0.10801 z m 0.0708,-0.10801 c 0.23403,-0.28261 0.672849,-0.29867 0.525033,-0.44648 -0.134366,-0.13437 -0.26333,0.0491 -0.525033,0.44648 z M 134.167,118.17005 c -0.008,-0.005 0.0819,0.16251 0.32918,0.61856 0.53167,0.9807 0.99678,1.86629 1.40147,2.66599 -0.45332,-1.01117 -0.43738,-1.6986 -0.67593,-1.6986 -0.13508,0 -1.03203,-1.57038 -1.05472,-1.58595 z m -28.24375,29.96768 c 7.5e-4,7e-4 0.002,0.002 0.004,0.003 0.0284,0.0133 0.0568,0.0266 0.0853,0.0398 -0.004,-0.003 -0.007,-0.006 -0.0109,-0.009 -0.0167,-0.0137 -0.0712,-0.033 -0.078,-0.0336 z m -0.67334,0.14573 c -1.48757,1.8964 -3.65118,5.00669 -6.734993,9.93272 -3.857892,6.16254 -5.116268,8.44725 -5.989299,9.47953 -0.759574,0.89814 -2.547071,3.31008 -2.976045,3.86539 -0.428974,0.5553 0.119584,4.02043 -0.4408,4.71186 -2.517196,3.10582 -3.152385,7.97637 -3.968233,9.5219 -1.060239,2.00851 -11.218063,15.03856 -11.421526,14.75207 -0.02755,-0.0388 -0.130939,-2.18301 -0.401525,-5.20692 -0.14742,0.12766 -0.300031,0.2503 -0.441317,0.38344 -0.453398,0.119 -0.891429,0.36509 -1.360124,0.35709 -0.464396,-0.007 -0.879563,-0.16277 -1.251603,-0.41703 0.477048,4.04424 0.723392,8.56782 -0.80977,9.90637 -5.678297,4.95755 -14.606399,4.89098 -19.974491,7.75922 -0.456774,0.24406 -2.244062,-0.27683 -4.075204,-0.92139 2.381748,-2.69822 -10.134509,-1.6326 -8.054288,-4.48603 2.705558,-3.71121 8.378577,-13.09455 7.954036,-13.51908 -0.06245,-0.0625 -0.206898,-0.59143 -0.443384,-0.96945 0.758158,0.0988 1.885451,0.0912 1.817977,0.0687 -0.115973,-0.0386 2.699141,-3.36279 3.555856,-4.33462 4.393724,-4.98408 5.975622,-7.43152 8.176245,-11.81323 0.337286,-0.67159 1.489069,-0.97523 2.473234,-1.11259 -0.234842,-0.72513 -0.458909,-1.45363 -0.663526,-2.18746 -0.08663,-0.3107 -0.183608,-0.67756 -0.279569,-1.06557 -0.197163,0.12881 -0.386686,0.29532 -0.566374,0.50643 -2.304303,2.70722 -0.881127,3.5141 -4.724776,8.02896 -0.534201,0.86949 -8.533614,2.14491 -9.064046,3.01584 -1.051788,1.79793 -3.130907,5.47542 -4.309815,7.19233 -1.481464,2.05442 -2.99796,1.45101 -4.768184,3.25406 -1.534204,1.56302 -1.63802,3.97651 -3.096452,5.60999 -1.051186,1.14658 -1.849081,2.05665 -2.894397,3.20859 -1.141755,1.26611 -2.179519,1.38588 -3.304708,2.66651 -1.388889,1.41205 0.09121,1.36437 -1.278475,2.79466 -1.137217,1.23884 -1.460999,2.22081 -2.687691,3.37344 -0.663848,0.65224 1.176935,1.21685 0.536401,1.89239 -0.646172,0.75883 -1.049841,0.49801 -1.58905,1.1312 -0.621543,0.87321 -2.247815,0.24754 -2.868042,1.12189 -0.69542,0.95068 3.689997,-1.07622 2.870109,-0.22841 0.0082,0.002 0.01359,0.005 0.01602,0.008 v 5.2e-4 l 5.17e-4,5.2e-4 5.16e-4,5.1e-4 v 5.2e-4 5.2e-4 c 2.6e-5,6.8e-4 4e-6,0.002 0,0.003 v 5.1e-4 5.2e-4 l -5.16e-4,5.2e-4 v 5.1e-4 c -5.2e-5,1.4e-4 -4.17e-4,0.001 -5.17e-4,0.002 v 5.2e-4 c -0.04138,0.0703 -1.05745,0.31296 -1.093473,0.38189 v 5.2e-4 5.1e-4 c -6.7e-5,0.001 -9.6e-5,0.002 0,0.003 l 5.16e-4,5.2e-4 v 5.2e-4 h 5.17e-4 v 5.1e-4 5.2e-4 l 5.17e-4,5.2e-4 v 5.1e-4 l 5.17e-4,5.2e-4 v 5.2e-4 c 0.0027,0.002 0.008,0.005 0.0155,0.006 1.469646,0.30031 -0.486766,0.63085 1.011307,0.67386 1.658817,5.5e-4 -0.715144,-0.58444 0.942578,-0.64802 1.620347,-0.0908 2.856483,0.88902 4.478797,0.84491 1.839093,-0.0467 1.853735,0.42141 3.693314,0.41341 2.243404,-0.0392 3.525101,-1.39315 5.76709,-1.32757 2.370723,0.0616 4.741523,1.52781 7.111711,1.60972 2.456678,0.1 2.609627,-2.25328 5.067908,-2.21588 2.317966,0.0309 3.483581,-0.15065 5.801713,-0.14263 2.159755,-0.0322 3.35729,-1.46167 5.514392,-1.56941 2.325323,-0.16386 4.070285,-0.29552 6.390307,-0.52245 2.518622,-0.25363 12.445129,0.62791 14.97428,0.56792 3.155939,-0.12565 4.098521,-0.64808 7.24607,-0.45268 2.500846,0.17226 5.582767,-1.29165 8.088395,-1.23455 2.542382,0.0487 3.356623,0.63506 5.899383,0.64647 0.70714,-0.004 0.98689,-0.31068 1.07849,-0.74879 0.18776,-0.0887 0.28688,-0.21072 0.20619,-0.38861 -0.0626,-0.13792 -0.12431,-0.27414 -0.185,-0.40876 -0.0584,-0.72857 -0.22984,-1.53104 0.10387,-1.96525 -0.30955,0.0353 -0.63488,0.0687 -0.93276,0.0977 -6.523298,-14.96279 0.64853,-5.64475 -2.66289,-13.93145 -1.11271,-2.7845 -4.019034,-4.45038 -3.710888,-4.45038 h 5.16e-4 c 2.32e-4,-6e-5 0.0013,-4.1e-4 0.0016,-5.1e-4 h 5.16e-4 c 0.0688,-0.0778 -0.86933,-3.38463 2.812232,-1.58285 3.725224,1.82314 4.351274,-3.88917 4.560964,-3.88917 0.62103,0 3.05212,2.15527 1.17357,0.0217 -5.08385,-5.77402 1.92932,2.35621 -1.33532,-4.36614 -1.751,-3.60554 -3.11001,-10.0483 -3.10885,-10.92698 8.3e-4,-0.61857 -1.02095,-3.68114 0.11731,-5.12114 0.98913,-1.25134 3.83515,-3.4867 4.18579,-6.72827 0.10987,-1.01569 1.65867,-2.01214 2.67063,-1.7632 -0.1942,-0.37917 -0.38234,-0.76164 -0.5643,-1.14773 -0.29703,-0.74594 -0.65088,-1.47191 -0.8909,-2.23811 -0.38481,-1.22941 -0.66808,-2.63385 -0.57568,-3.98218 -0.28149,-0.52578 -0.60858,-1.18294 -0.81855,-1.80558 z m 12.77441,17.44027 c -0.004,0.0182 -0.008,0.0365 -0.0129,0.0538 -0.009,0.0336 -0.0174,0.0676 -0.0263,0.1018 5.51859,8.65762 12.52288,19.03647 18.7203,26.26506 5.68185,6.62724 7.5139,6.86282 8.16746,6.73809 0.23651,-0.0451 0.70432,-0.3003 0.80667,-2.25102 0.13391,-2.55215 0.5189,1.36409 1.30741,-0.90796 0.6216,-1.79111 2.64608,-3.27245 2.83291,-3.26543 0.0818,0.003 2.78828,-0.74596 3.25509,0.0382 0.73929,1.24214 0.91658,2.70333 1.4671,3.80287 -0.80118,-3.16493 -0.48524,-4.73668 -0.48524,-7.80573 0,-0.90947 1.03491,-4.48481 1.12551,-4.5408 0.0906,-0.056 5.84476,1.96347 6.44767,2.84427 6.56353,9.58887 10.82115,13.63962 23.2053,18.81435 -2.78724,-3.80471 -0.73151,-2.03878 -5.20123,-6.51691 -3.53596,-3.5426 -5.4196,-3.60714 -8.83151,-7.67757 -1.35936,-1.62171 -2.99333,-4.35648 -3.98373,-5.25498 -0.99041,-0.89851 -1.16718,-3.2157 -2.62361,-4.56251 -1.45644,-1.3468 -4.11849,-0.65703 -4.97644,-1.28519 -0.85795,-0.62815 -0.55778,-1.31979 -1.09399,-1.77147 -0.53622,-0.45167 -1.26587,-0.93736 -1.85571,-1.31413 -0.58984,-0.37679 -1.27543,-0.0403 -1.75803,-0.42633 -0.48259,-0.38604 -0.66814,0.26271 -0.88263,0.26768 -0.2312,0.006 1.01422,-2.26857 0.54157,-1.66811 -0.43847,0.55705 -2.64026,1.83831 -5.55935,5.56503 -2.9191,3.72672 -6.89181,6.50245 -6.98769,6.50245 -0.0959,0 -2.97479,-0.78424 -4.50257,-2.74144 -1.76232,-2.25767 -3.5347,-3.27969 -6.95203,-7.4843 -0.4122,0.33298 -0.86592,0.62282 -1.31051,0.90486 -0.0899,0.0571 -0.11584,-0.1787 -0.17364,-0.2682 -0.0392,-0.0593 -0.0784,-0.1186 -0.11782,-0.17777 -0.0862,-0.0143 -0.12792,-0.12196 -0.16329,-0.24391 -0.40982,-0.60775 -0.83112,-1.2072 -1.25419,-1.80558 -0.78827,-0.22534 -1.73351,-1.37215 -2.11822,-1.79265 -1.86848,-2.10296 -3.61967,-4.30666 -5.42344,-6.46472 -0.28173,-0.34207 -0.5642,-0.68359 -0.84698,-1.02475 -0.24591,-0.21508 -0.49112,-0.4306 -0.73587,-0.64699 z m 66.81091,39.88749 c 0.38301,0.52283 0.85775,1.15073 1.45314,1.91461 1.80837,2.32011 2.54777,1.35806 2.06292,1.35806 -0.37655,0 -0.60722,-2.07812 -2.62671,-2.90525 -0.30092,-0.12325 -0.59758,-0.2455 -0.88935,-0.36742 z m -30.29324,-9.31209 c 0.0688,0.27191 0.1458,0.55579 0.23203,0.85318 0.27748,0.95698 1.36305,1.47974 1.59938,1.67535 -0.0234,-0.28977 -0.21717,-0.82156 -1.06402,-1.52136 -0.3304,-0.27302 -0.57227,-0.61747 -0.76739,-1.00717 z m 1.83141,2.52853 c 0.005,0.06 0.002,0.10973 -0.003,0.14831 0.0117,-0.0229 0.0272,-0.0499 0.0465,-0.0811 0.009,-0.015 -0.007,-0.0374 -0.0434,-0.0672 z m -0.003,0.14831 c -0.0271,0.0532 -0.0349,0.085 -0.0341,0.0951 v 5.2e-4 5.2e-4 5.1e-4 5.2e-4 h 5.2e-4 v 5.2e-4 h 5.2e-4 5.1e-4 5.2e-4 5.2e-4 5.1e-4 5.2e-4 v -5.2e-4 l 5.2e-4,-5.2e-4 c 0.008,-0.008 0.0221,-0.0412 0.03,-0.0966 z m -84.607755,-6.95668 c -0.07206,0.0937 -0.156816,0.17585 -0.256315,0.24391 -0.134685,0.0921 -0.264765,0.16761 -0.389641,0.22738 0.04714,0.0822 0.09699,0.16571 0.149862,0.25114 0.0698,0.11281 0.506623,0.8018 0.80977,0.8506 0.06106,0.01 0.0019,-0.14014 -0.04548,-0.17984 -0.09204,-0.0771 -0.222319,-0.0917 -0.333313,-0.13746 0.06754,-0.35218 0.153638,-0.69997 0.205673,-1.05316 -0.05037,-0.0619 -0.09629,-0.13178 -0.14056,-0.20257 z m 33.480645,17.75705 c -0.47207,-0.0141 -0.75399,0.11033 -0.91622,0.32143 1.04684,-0.11951 1.91231,-0.2609 0.91622,-0.32143 z m -2.42673,0.47284 c -0.56852,0.0509 -0.8006,0.0657 -0.0956,0.006 0.034,-0.003 0.0659,-0.005 0.0956,-0.006 z" /><path
       id="path18"
       style="display:inline;fill:#000000;fill-opacity:0;stroke-width:0.552723"
       d="m 83.991772,99.212032 c -0.518062,0.01322 -3.759941,2.509078 -5.229654,4.053498 -4.611557,4.84596 -7.509791,11.50838 -8.589657,19.74608 -0.389427,2.97158 -0.389757,8.67563 -0.001,11.83391 1.046361,8.49741 4.34174,16.72756 9.074382,22.6627 0.577778,0.72457 1.132636,1.28971 1.233,1.25625 0.24584,-0.0819 19.994217,-28.44779 20.000837,-28.72848 0.003,-0.1216 -0.46993,-0.4137 -1.05109,-0.64957 -1.348852,-0.54746 -4.327958,-2.31456 -5.853906,-3.47214 -1.549738,-1.17563 -4.999183,-4.53704 -6.047693,-5.8937 -1.16938,-1.51305 -2.519921,-3.90736 -3.307291,-5.86321 -1.024998,-2.54611 -1.362854,-4.48854 -1.372527,-7.88375 -0.0086,-3.02836 0.176768,-4.23938 0.919324,-6.0017 0.21601,-0.512775 0.342758,-0.982231 0.281637,-1.043351 -0.01177,-0.01177 -0.03084,-0.01719 -0.05633,-0.01654 z m 49.414038,16.323548 -5.2e-4,5.2e-4 h -5.1e-4 v 5.2e-4 h -5.2e-4 -5.2e-4 c -0.0455,0.0352 -0.0499,0.79729 -0.003,1.72341 0.19314,4.03972 -1.03321,8.77984 -3.21117,12.41216 l -0.70177,1.16995 -0.16484,3.36414 c -0.10967,2.23722 -0.32999,4.17882 -0.65733,5.79551 -0.48923,2.41622 -1.38759,5.21189 -1.95182,6.07301 -0.16227,0.24766 -0.29507,0.55255 -0.29507,0.67748 0,0.12494 2.12773,3.76573 4.72839,8.09098 2.60066,4.32525 4.82001,7.86745 4.932,7.87187 0.11199,0.004 0.74334,-0.7211 1.40302,-1.61179 10.53097,-14.21871 10.34003,-29.47769 -0.52762,-42.13747 -1.47588,-1.71925 -3.24544,-3.43029 -3.54759,-3.43029 h -5.1e-4 z m -26.12502,25.2858 c -0.13538,0.30326 -0.26921,0.60741 -0.40049,0.9126 -0.359,0.80995 -0.74222,1.60946 -1.16324,2.38901 -0.41311,0.77048 -0.95165,1.46289 -1.46658,2.16627 -0.63659,0.85116 -1.32104,1.65936 -2.03553,2.44533 -0.58679,0.6457 -1.21479,1.2533 -1.79421,1.90583 -0.40365,0.44986 -0.770511,0.93072 -1.067115,1.45727 -0.327897,0.59376 -0.697981,1.16509 -1.001489,1.77199 -0.364549,0.77587 -0.874734,1.46441 -1.366325,2.16162 -0.536736,0.67346 -1.026961,1.37981 -1.521871,2.0836 -0.48734,0.67261 -1.067413,1.26515 -1.633492,1.86913 -0.519056,0.47047 -0.933133,1.02571 -1.329634,1.59887 -0.547483,0.77224 -1.103697,1.53911 -1.69447,2.27893 -0.605718,0.73346 -1.205879,1.47027 -1.783354,2.22622 -0.443682,0.56491 -0.849984,1.15733 -1.289327,1.72548 -0.342755,0.42461 -0.635289,0.88405 -0.939994,1.33532 -0.420949,0.63835 -0.909899,1.22748 -1.359091,1.84536 -0.825675,1.123 -1.690397,2.21463 -2.497522,3.35225 -0.621294,0.89023 -1.23748,1.78604 -1.805574,2.71147 -0.49797,0.80846 -1.00393,1.60248 -1.696537,2.25722 -0.435689,0.30729 -0.956149,0.55628 -1.492932,0.64389 -0.517067,0.65714 -1.019168,1.32595 -1.509986,2.00401 -0.600292,0.91273 -1.230964,1.81103 -1.767334,2.76418 0.36446,0.38395 0.73011,0.76675 1.101225,1.14411 0.41757,0.42523 0.820317,0.863 1.21543,1.30897 1.78354,2.01308 -0.257592,3.8174 -2.035535,1.79937 -0.262483,-0.29793 -0.530167,-0.5908 -0.803569,-0.8785 -0.297625,0.13064 -0.648238,0.1348 -0.984952,-0.0212 -0.32059,0.95194 -0.563729,1.9291 -0.785999,2.91042 -0.447728,1.65392 -0.791482,3.32415 -1.052649,5.01675 -0.226639,1.65259 -0.41993,3.31262 -0.42633,4.98212 0.02537,1.5664 0.471324,3.08169 0.8816,4.58112 0.550949,2.08946 1.180657,4.15676 1.81746,6.22132 0.397553,1.32787 0.856476,2.63388 1.348755,3.92741 0.884463,0.001 1.769218,0.003 2.653584,0.009 1.276676,0.0105 2.552937,0.0265 3.829224,0.061 1.577404,0.0475 3.154939,0.11443 4.725293,0.27853 1.500465,0.15895 2.998834,0.34567 4.492749,0.55707 1.070764,0.13417 2.138477,0.29007 3.207039,0.43925 0.696202,-0.0507 1.39347,-0.0874 2.090312,-0.12247 1.425139,-0.0668 2.851891,-0.0932 4.27829,-0.11317 1.38981,-0.0162 2.77988,-0.0182 4.16977,-0.0212 1.60064,-0.01 3.19914,-0.0214 4.79713,0.0796 0.28124,0.0241 0.56262,0.0486 0.84387,0.0734 0.0493,-0.97832 0.10341,-1.95672 0.15865,-2.9347 0.19253,-3.33614 0.37491,-6.67375 0.38809,-10.01644 -0.005,-0.006 -0.0104,-0.0102 -0.0155,-0.0155 -0.64605,-0.70793 -1.27912,-1.42554 -1.87534,-2.17661 -0.0664,-0.087 -0.1321,-0.17399 -0.19689,-0.262 -0.38982,-0.16387 -0.74892,-0.47279 -1.05213,-0.77618 -0.59076,-0.65829 -1.10054,-1.37801 -1.25729,-2.26963 -0.0366,-0.4283 -0.0291,-0.79212 0.0403,-1.11776 -0.14866,-0.39864 -0.27559,-0.8063 -0.36742,-1.2237 -0.17493,-0.81444 -0.29576,-1.63139 -0.21756,-2.46755 0.0742,-0.83101 0.21321,-1.67646 0.72037,-2.36368 0.15289,-0.11717 0.2735,-0.29911 0.45889,-0.3514 1.0288,-0.29008 1.46432,0.31209 1.83296,1.07487 0.46786,0.39654 0.90108,0.8323 1.32705,1.27331 0.2035,0.20072 0.40793,0.39992 0.61754,0.59376 0.0268,0.0124 0.0538,0.0247 0.0806,0.0372 -6e-4,-0.40989 -0.002,-0.81946 -0.005,-1.22938 -0.12192,-0.17423 -0.24408,-0.34923 -0.36742,-0.52245 -0.43267,-0.6694 -0.88301,-1.3253 -1.34152,-1.97714 -0.59613,-0.88112 -1.08458,-1.83014 -1.57561,-2.77244 -0.4657,-0.93921 -0.96254,-1.86511 -1.45934,-2.78846 -0.28529,-0.59083 -0.65388,-1.13339 -1.03405,-1.66605 -1.02534,-1.43663 -0.42075,-2.61173 0.55552,-2.62878 0.36471,-0.006 0.7812,0.14941 1.18391,0.51263 -1.09523,-2.41378 -2.05216,-4.8919 -2.86184,-7.13238 -1.03753,-2.87096 -1.78896,-3.89757 -0.79633,-5.2095 0.34606,-0.45737 0.9358,-1.48737 1.22731,-1.87379 0.7007,-0.92886 0.74851,-1.55488 1.02061,-4.57853 0.0173,-0.19191 0.37527,-1.17629 0.39377,-1.35599 -0.22984,-0.45797 2.00599,-0.35133 1.86449,-0.88987 -0.14105,-0.3054 -0.057,-0.1692 -0.24495,-0.41341 -0.76127,-0.98897 -0.26208,-1.83158 0.45321,-1.83658 0.37467,-0.003 0.80836,0.22461 1.15186,0.78083 0.39419,0.63831 0.23039,0.31017 0.49765,0.98082 0.16492,0.62768 0.23461,1.03716 0.66507,1.54409 0.11061,-2.32544 0.21215,-4.65076 0.23565,-6.9789 -0.47699,-0.76809 -0.94073,-1.54437 -1.40612,-2.32131 -0.63352,-0.89932 -1.25511,-1.81037 -1.96835,-2.64945 -1.25198,-1.47288 -0.78191,-2.89551 0.28318,-2.86856 0.41678,0.0105 0.92422,0.24313 1.45573,0.78135 0.56438,0.57151 1.05712,1.20657 1.52704,1.8588 -0.0764,-1.5348 -0.2014,-3.06751 -0.40463,-4.593 -0.0508,-0.38546 -0.10236,-0.77075 -0.15503,-1.156 -0.42521,-0.37263 -0.83888,-0.75911 -1.24178,-1.15652 -0.35044,-0.33105 -0.69942,-0.66307 -1.0418,-1.00252 z m 4.44159,3.84886 c 0.27785,2.38159 0.38207,4.77731 0.42013,7.17372 0.57665,0.94534 1.16335,1.88348 1.79782,2.79415 0.85583,1.24251 1.72018,2.47712 2.73317,3.59719 0.93067,0.91 1.76422,1.91402 2.60552,2.90577 0.39799,0.47942 0.80097,0.95463 1.20458,1.42937 -0.0724,-0.55645 -0.1301,-1.11477 -0.16795,-1.67535 -0.0949,-1.15423 -0.13544,-2.31381 -0.30799,-3.46077 -0.1983,-1.23882 -0.46301,-2.46463 -0.91984,-3.63751 -0.04,-0.0982 -0.0805,-0.19634 -0.12144,-0.29403 -0.22908,-0.16722 -0.44867,-0.41132 -0.63924,-0.74156 -0.61757,0.69423 -1.86203,0.4455 -2.38796,-1.18443 -0.13247,-0.41058 -0.0599,-0.19976 -0.21859,-0.63148 -0.37879,-0.94581 -0.74665,-1.89651 -1.14567,-2.83394 -0.3319,-0.71575 -0.6488,-1.43859 -0.97824,-2.15542 -0.57622,-0.44241 -1.17836,-0.84497 -1.79627,-1.23197 -0.0261,-0.0179 -0.052,-0.0358 -0.078,-0.0537 z m 0.37,12.0742 c -0.0677,2.10742 -0.1767,4.21366 -0.27595,6.32003 0.11936,0.1293 0.24149,0.25613 0.36742,0.37982 0.49517,0.45267 1.02014,0.874 1.48673,1.35702 0.44834,0.4482 0.87018,0.9263 1.19321,1.47485 0.30064,0.44438 0.59193,0.89421 0.91519,1.32291 0.35827,0.53723 0.79603,1.01912 1.15032,1.56011 0.47165,0.68941 0.94262,1.37849 1.39216,2.08256 0.38959,0.56327 0.77439,1.13063 1.1467,1.70533 0.344,0.59442 0.65951,1.20345 0.98754,1.8066 0.27408,0.49971 0.5328,1.00827 0.81338,1.50431 0.34641,0.51147 0.75504,0.97851 1.09089,1.4981 0.30538,0.42985 0.62459,0.85036 0.95602,1.26038 0.36374,0.46006 0.78968,0.86917 1.2237,1.26142 0.42529,0.35131 0.84376,0.71196 1.28105,1.048 0.50084,0.40774 0.98262,0.83683 1.42317,1.31 0.43935,0.4829 0.8737,0.97024 1.24385,1.50947 0.42992,0.66137 0.91226,1.28764 1.32447,1.96112 0.44072,0.70532 0.88592,1.408 1.3286,2.11202 0.3814,0.59892 0.77735,1.18653 1.18908,1.76526 0.36081,0.54507 0.80659,1.0295 1.264,1.49448 0.49773,0.49363 1.01293,0.96948 1.50637,1.46762 0.52525,0.47034 1.0407,0.95598 1.51309,1.47949 0.4176,0.4621 0.86888,0.8928 1.30431,1.3379 0.39415,0.44746 0.84935,0.8341 1.23868,1.28571 0.5135,0.54055 0.98159,1.1228 1.41387,1.73013 0.31994,0.45752 0.63037,0.9255 1.00873,1.3379 0.32219,0.36259 0.65587,0.72103 1.03404,1.02526 0.40298,0.3303 0.84264,0.61548 1.22215,0.97514 0.42524,0.36513 0.85759,0.72339 1.19166,1.17925 0.29817,0.40116 0.61122,0.79169 0.88986,1.20665 0.0388,-0.38164 0.0973,-0.76062 0.19844,-1.13223 0.17832,-0.61452 0.41588,-1.20633 0.63562,-1.80661 0.21623,-0.62968 0.40771,-1.2669 0.60152,-1.90376 0.22373,-0.66249 0.47139,-1.31636 0.66456,-1.98902 0.22182,-0.64921 0.40355,-1.31166 0.6506,-1.95234 0.31588,-0.72581 0.70959,-1.38311 1.42162,-1.78594 0.18087,-0.0592 0.3526,-0.16686 0.5426,-0.17776 0.91456,-0.0525 1.29017,0.52216 1.71411,1.18907 0.39115,0.59422 0.7134,1.22629 1.07642,1.83761 0.35547,0.60862 0.71731,1.21533 1.09812,1.80816 0.29825,0.46624 0.62983,0.90899 0.96687,1.34772 0.33247,0.46125 0.58677,0.96637 0.894,1.44384 0.28738,0.36884 0.59862,0.6327 1.05317,0.78445 0.0946,0.0413 0.18863,0.0835 0.28267,0.12609 -0.002,-0.008 -0.004,-0.0163 -0.007,-0.0243 -0.21185,-0.69123 -0.42947,-1.38159 -0.58962,-2.08721 -0.18757,-0.7113 -0.37218,-1.42326 -0.57051,-2.13165 -0.21167,-0.77141 -0.36159,-1.55863 -0.46251,-2.35231 -0.1416,-0.98263 -0.26317,-1.97117 -0.27647,-2.96519 0.007,-0.81616 0.0167,-1.63261 0.0579,-2.44792 0.0464,-0.84494 0.0957,-1.69846 0.3514,-2.51147 0.18672,-0.48218 0.41916,-1.12739 0.9834,-1.30638 0.73149,-0.23203 1.16747,0.0586 1.61954,0.52503 0.45157,0.51538 0.88861,1.0414 1.28416,1.60197 0.50269,0.67137 0.97958,1.36261 1.51567,2.00866 0.45176,0.53152 0.93708,1.03345 1.38958,1.56476 0.35408,0.40165 0.6995,0.81725 1.13533,1.13482 0.50077,0.38893 1.00229,0.77823 1.48053,1.19476 0.21782,0.18222 0.42836,0.37296 0.63097,0.57102 0.10587,-0.0416 0.22493,-0.0628 0.3545,-0.0594 0.29065,0.007 0.63087,0.13839 0.9772,0.43563 0.0268,-0.002 0.0535,-0.002 0.0801,-0.002 0.48085,0.007 0.91598,0.34411 0.89245,0.90847 0.44203,0.40509 0.88788,0.80693 1.3224,1.2206 0.70767,0.66793 1.39548,1.35499 2.03657,2.08721 0.37325,0.44743 0.73347,0.90608 1.08934,1.36788 0.0697,0.074 0.127,0.14976 0.17363,0.22634 0.2589,0.33756 0.51613,0.67634 0.77618,1.01286 0.13712,0.19116 0.2767,0.38111 0.41703,0.56947 0.34824,0.2573 0.71645,0.47306 1.12758,0.62994 0.64551,0.23379 1.30512,0.42816 1.9327,0.70693 0.7046,0.37665 1.25059,0.7627 1.75648,1.39113 0.48482,0.56721 0.99399,1.11264 1.47588,1.68258 0.41657,0.46416 0.8451,0.90987 1.37511,1.24747 0.52317,0.30941 1.06505,0.59642 1.63349,0.81339 0.6596,0.29443 1.30699,0.61482 1.87534,1.06815 0.43229,0.33206 0.84667,0.68891 1.31258,0.9741 0.3975,0.23179 0.82003,0.42456 1.24902,0.59015 0.43668,0.1321 0.87227,0.25453 1.3255,0.31884 0.51838,0.0548 1.03929,0.0569 1.55856,0.1018 0.61021,0.0653 1.22451,0.15493 1.77612,0.44235 0.55598,0.33317 1.01682,0.75735 1.35599,1.31569 0.10091,0.14114 0.20317,0.28514 0.31316,0.42064 0.003,5.5e-4 0.005,10e-4 0.008,0.002 0.36922,0.0905 0.71675,0.22282 1.04903,0.38499 -0.047,-0.0488 -0.0935,-0.0978 -0.13952,-0.1478 -0.46425,-0.55173 -0.90361,-1.12291 -1.31104,-1.71772 -0.43863,-0.64158 -0.91619,-1.25496 -1.38854,-1.87172 -0.40715,-0.5518 -0.8431,-1.08231 -1.28984,-1.60249 -0.42121,-0.46652 -0.85977,-0.91382 -1.3162,-1.34565 -0.49585,-0.48149 -1.03995,-0.90813 -1.55753,-1.36529 -0.57965,-0.5073 -0.97144,-1.17092 -1.39371,-1.80403 -0.29638,-0.50605 -0.60525,-1.00473 -0.91054,-1.50533 -0.28137,-0.27753 -0.56406,-0.55336 -0.84543,-0.83096 -0.61225,-0.63004 -1.2498,-1.23758 -1.81178,-1.91461 -0.46629,-0.61489 -0.92261,-1.23706 -1.43453,-1.81539 -0.60843,-0.75775 -1.20843,-1.52191 -1.72496,-2.34663 -0.7369,-1.05512 -1.52235,-2.08313 -2.40864,-3.0179 -0.62783,-0.72201 -1.26883,-1.4326 -1.99574,-2.05776 -0.44059,-0.43678 -0.9271,-0.82765 -1.39372,-1.2361 -0.56845,-0.45858 -1.15894,-0.89126 -1.69654,-1.38699 -0.66027,-0.62264 -1.26208,-1.30376 -1.8588,-1.98696 -0.49776,-0.5297 -0.98634,-1.06834 -1.46967,-1.61127 -0.43158,-0.49913 -0.87177,-0.99027 -1.31104,-1.4826 -0.52049,-0.60478 -1.04402,-1.20623 -1.57613,-1.80093 -0.54018,-0.58732 -1.0528,-1.20052 -1.6309,-1.75234 -0.48167,-0.44072 -0.95497,-0.89263 -1.48932,-1.27073 -0.57627,-0.42119 -1.17416,-0.80867 -1.77043,-1.20096 -0.59715,-0.44543 -1.1816,-0.90603 -1.77457,-1.35702 -0.62156,-0.50082 -1.2409,-1.00605 -1.91151,-1.44126 -0.58327,-0.3615 -1.169,-0.71379 -1.78853,-1.01182 -0.57741,-0.36921 -1.1072,-0.80271 -1.65157,-1.21801 -0.38014,-0.29871 -0.0178,1.86493 -0.45786,1.65571 -0.11133,-0.0529 -0.57391,-1.6179 -0.66249,-1.67638 -0.77146,0.93495 -0.63754,2.9002 -1.91771,4.5377 -2.14488,2.74355 -4.594,6.28917 -5.77433,7.79591 -1.18033,1.50674 -4.01354,3.45261 -4.13721,3.49384 -0.12368,0.0412 -2.93543,-2.68214 -4.58887,-4.8059 -1.97643,-2.53863 -3.11733,-4.10132 -6.36343,-9.36429 -0.25618,0.77317 -1.33611,1.11944 -2.58693,0.17311 -0.88146,-0.66688 -1.71562,-1.39063 -2.53679,-2.1301 -0.51437,-0.42981 -1.02356,-0.8688 -1.49138,-1.34824 -0.60451,0.0774 -1.33391,-0.36161 -1.7446,-1.48001 -0.22828,-0.62163 -0.14454,-0.39942 -0.32763,-0.8754 -0.0264,-0.0352 -0.0524,-0.0706 -0.078,-0.10645 -0.62609,-0.84637 -1.33096,-1.63327 -1.97301,-2.46755 -0.92386,-1.11865 -1.87921,-2.21138 -2.80551,-3.32796 -0.82335,-0.9712 -1.63962,-1.95269 -2.55127,-2.84324 -0.93566,-1.04067 -1.76548,-2.16271 -2.56315,-3.31039 z m -47.755739,3.55844 c -0.842113,0.64117 -1.684984,1.28409 -2.425175,2.04483 -0.809446,0.79104 -1.577983,1.62118 -2.337325,2.46032 -0.67257,0.83702 -1.303541,1.70211 -1.893424,2.60036 -0.745463,1.0907 -1.452834,2.20364 -2.121834,3.34346 -0.722475,1.1658 -1.456979,2.32566 -2.248959,3.44579 -0.910424,1.26839 -1.92995,2.44827 -3.025138,3.56154 -1.11051,1.1066 -2.247606,2.18875 -3.307292,3.34449 -0.685023,0.75444 -1.363168,1.51547 -2.060339,2.25878 -0.590375,0.59537 -1.19188,1.17706 -1.812809,1.74046 -0.236958,0.19286 -0.470559,0.38938 -0.70435,0.58601 -0.671984,1.01957 -1.36845,2.02239 -2.119767,2.98742 -1.06612,1.36217 -2.27357,2.59358 -3.529501,3.77806 -1.177908,1.09841 -2.377535,2.17278 -3.553271,3.2737 -0.01724,0.0164 -0.03443,0.0328 -0.05168,0.0491 -0.285526,0.68399 -0.606974,1.35316 -0.995804,1.98541 -0.494891,0.79171 -1.045032,1.53746 -1.698605,2.2071 -0.63598,0.71946 -1.259059,1.45699 -1.975073,2.09909 -0.610958,0.56633 -1.206122,1.14914 -1.795756,1.73736 -0.657829,0.64916 -1.294217,1.31912 -1.942517,1.97766 -0.528895,0.54187 -1.09285,1.04448 -1.669666,1.53479 -0.573699,0.54529 -1.167786,1.06887 -1.733227,1.62316 -0.625606,0.57566 -1.284781,1.114 -1.882573,1.71927 -0.682215,0.67478 -1.41155,1.30522 -2.016931,2.05414 -0.364637,0.4632 -0.741309,0.91788 -1.028361,1.43557 -0.286829,0.45998 -0.605487,0.90068 -0.831474,1.39578 0.864734,0.48359 0.83026,1.82004 -0.78083,2.57556 -0.0371,0.0174 -0.07413,0.0351 -0.111105,0.0527 -0.02243,0.0673 -0.04564,0.13422 -0.06976,0.20102 1.847935,0.11304 3.693548,0.25769 5.526794,0.52503 1.650419,0.18336 3.300689,0.3648 4.957837,0.47749 1.511477,0.12999 3.022,0.18896 4.539775,0.15916 1.577465,0.0112 3.15488,0.0215 4.731494,0.0791 1.562095,0.0599 3.122848,0.14534 4.681368,0.2682 1.7823,0.1076 3.569775,0.16478 5.355229,0.16278 1.900972,-0.0105 3.802473,-0.0208 5.703011,-0.0656 1.74059,-0.0481 3.479729,-0.12449 5.218286,-0.22169 1.799988,-0.0844 3.603191,-0.0984 5.401737,-0.21859 1.034569,-0.0614 2.068843,-0.12602 3.103687,-0.17932 0.164357,-0.44534 0.602697,-0.8932 1.373043,-1.19838 0.212755,-0.0843 0.427752,-0.1602 0.644922,-0.22892 -0.297211,-0.73225 0.263675,-1.68249 1.790071,-1.8464 0.43871,-0.0471 0.876927,-0.097 1.315682,-0.14366 0.907522,-0.0809 1.819186,-0.10939 2.725932,-0.20309 0.401196,-0.0211 0.80249,-0.027 1.204061,-0.0274 -0.409386,-1.10728 -0.791759,-2.2242 -1.131197,-3.3569 -0.642861,-2.08424 -1.278088,-4.17143 -1.834514,-6.28075 -0.456185,-1.66809 -0.935837,-3.35521 -0.950329,-5.0984 0.01166,-1.76426 0.204173,-3.51913 0.449068,-5.26531 0.202004,-1.30649 0.450412,-2.60091 0.756543,-3.88452 -0.322078,0.10154 -0.65333,0.17867 -0.984953,0.24753 -0.611273,0.0849 -1.101839,0.038 -1.403532,-0.27388 -0.182902,0.15321 -0.375057,0.29675 -0.572058,0.43459 -0.567437,0.84888 -1.158657,1.6826 -1.881022,2.40968 -0.627225,0.60231 -1.281661,1.17713 -2.038118,1.6123 -0.277915,0.2338 -0.564228,0.45865 -0.857829,0.67386 -0.672554,0.46128 -1.061735,0.75127 -1.790589,1.15084 -0.623024,0.34155 -1.26892,0.63682 -1.933215,0.8785 -0.189866,0.17206 -0.37522,0.35021 -0.556038,0.53278 -0.896827,0.82697 -1.799209,1.64959 -2.758488,2.4045 -0.395407,0.29027 -0.798294,0.57012 -1.19631,0.85628 -0.453891,0.37408 -0.909442,0.7445 -1.389062,1.08572 -0.04267,0.0377 -0.08498,0.0757 -0.127124,0.11421 -0.865796,0.70732 -1.73124,1.41442 -2.64325,2.06241 -0.855207,0.63 -1.744233,1.21577 -2.697509,1.68878 -0.612877,0.3451 -1.189071,0.727 -1.709974,1.20406 -0.669105,0.55458 -1.396947,1.04854 -2.24069,1.29398 -0.357502,0.0683 -0.868862,0.21706 -1.208195,-0.017 -0.880721,-0.61126 -0.727513,-1.36703 -0.236678,-2.08411 0.458318,-0.61557 0.949479,-1.21089 1.667599,-1.53324 0.675859,-0.33773 1.317006,-0.72548 1.930114,-1.16789 0.279092,-0.19706 0.563682,-0.38466 0.851628,-0.56689 0.022,-0.0238 0.04212,-0.0475 0.06408,-0.0713 -0.126568,-0.17552 -0.259036,-0.40635 -0.405143,-0.71004 -0.08958,-0.18621 0.173271,-0.37515 0.259932,-0.56275 0.708823,-1.02282 1.353981,-2.08608 1.930632,-3.18844 0.584168,-1.21005 1.142211,-2.42944 1.780253,-3.6127 0.139198,-0.25744 0.274659,-0.51709 0.40566,-0.77876 -0.632321,0.1897 -1.355338,0.32906 -1.932182,0.19378 -0.244464,-0.0573 -0.472673,-0.16996 -0.709001,-0.25476 -0.04157,-0.12788 -0.09252,-0.25395 -0.144177,-0.37982 -0.01493,-0.0108 -0.02923,-0.0219 -0.04186,-0.0351 -0.06571,-0.069 -0.07404,-0.1763 -0.0801,-0.26924 -3.9e-4,-0.001 -8.15e-4,-0.002 -10e-4,-0.003 -0.01817,-0.0149 -0.03699,-0.029 -0.05633,-0.0424 -0.18349,-0.12718 -0.170852,-0.29396 -0.05891,-0.33848 -0.01395,-0.0663 -0.02443,-0.13355 -0.02997,-0.20154 -0.01409,-0.17241 0.167144,-0.30387 0.272852,-0.4408 0.317208,-0.41089 0.835218,-0.63409 1.187524,-1.00873 0.79349,-0.67562 1.560024,-1.38127 2.350761,-2.05982 0.728312,-0.64127 1.456932,-1.28301 2.098063,-2.01435 0.711045,-0.77553 1.392831,-1.57581 2.035018,-2.40967 0.119062,-0.17162 0.236912,-0.34393 0.353984,-0.51676 0.22146,-0.69726 0.465271,-1.38776 0.720369,-2.07481 0.508129,-1.37006 1.157263,-2.67969 1.853634,-3.96203 0.512203,-0.94688 1.064499,-1.87028 1.635042,-2.78278 0.335133,-0.42285 0.642695,-1.30301 1.040247,-1.64331 0.130144,-0.1114 0.281987,-0.19453 0.427364,-0.28577 -0.170648,-0.56283 -0.326861,-1.12993 -0.415995,-1.70946 -0.35028,-0.646 -0.424019,-1.23266 -0.318327,-1.68413 -0.08547,-0.15474 -0.17138,-0.3092 -0.257866,-0.46354 -0.472268,-0.84281 -0.481568,-1.56628 -0.237194,-2.03967 0.0026,-0.64908 0.407149,-1.10335 1.014925,-1.10742 0.422301,-0.003 0.942666,0.21177 1.494482,0.72915 0.898745,0.84266 1.615377,1.85835 2.40037,2.80448 1.078368,1.23894 2.075932,2.54571 2.999817,3.90312 0.961418,1.38158 1.894021,2.78234 2.809648,4.19458 0.725512,1.15398 1.531714,2.25218 2.436027,3.27163 0.500872,-0.83332 1.056187,-1.63484 1.592151,-2.44481 0.366886,-0.50662 0.73985,-1.00847 1.120345,-1.5043 -0.690627,-0.67361 -1.06347,-1.57011 -1.441256,-2.44223 -0.231243,-0.5289 -0.356359,-1.0985 -0.596346,-1.62316 -0.201916,-0.39551 -0.395592,-0.79447 -0.584977,-1.19579 -0.661527,-0.7441 -1.237814,-1.55343 -1.767334,-2.39727 -0.848833,-1.43118 -1.611292,-2.91092 -2.348177,-4.40231 -0.281425,-0.36122 -0.565346,-0.72026 -0.829924,-1.09399 -0.439144,-0.64592 -0.86216,-1.29914 -1.250569,-1.97714 -0.401979,-0.683 -0.825829,-1.35423 -1.266073,-2.01332 -0.37736,-0.56606 -0.810633,-1.08889 -1.282609,-1.57768 -0.0966,-0.10291 -0.19434,-0.20457 -0.292489,-0.30592 z m 58.766959,1.29191 c 0.0835,0.78505 0.20312,1.5659 0.34209,2.34352 0.21564,1.19445 0.5753,2.3504 1.00046,3.48403 0.3382,0.40061 0.7064,0.77559 1.05213,1.16944 0.53536,0.6952 1.19937,1.26714 1.86966,1.82624 0.62833,0.55912 1.25659,1.11899 1.91306,1.64435 -1.10707,-1.81702 -2.41829,-3.98761 -4.00183,-6.61976 -0.76446,-1.27068 -1.4905,-2.56457 -2.17557,-3.84782 z m -10.64328,44.79003 c -0.0644,2.58585 -0.20753,5.16897 -0.35657,7.75146 -0.0562,1.00084 -0.11171,2.0021 -0.16175,3.00344 0.70274,0.0712 1.40488,0.14935 2.1053,0.23926 1.26436,0.20032 2.53899,0.30739 3.81579,0.38499 0.42695,0.0227 0.85426,0.0399 1.28158,0.0532 -0.57632,-0.53781 -1.0327,-1.19135 -1.46762,-1.84692 -0.51778,-0.7893 -0.99061,-1.60781 -1.44022,-2.43758 -0.40623,-0.79529 -0.76549,-1.6129 -1.14153,-2.42259 -0.33858,-0.79228 -0.73604,-1.55676 -1.10174,-2.33629 -0.0272,-0.0577 -0.0542,-0.11509 -0.0816,-0.1726 -0.0988,-0.0946 -0.19554,-0.20575 -0.29249,-0.32918 -0.38407,-0.63101 -0.73952,-1.27973 -1.1591,-1.88722 z" /><path
       style="display:inline;fill:#000000;fill-opacity:0;stroke-width:0.552723"
       d="m 50.535575,222.59468 c -23.34338,-0.0593 -42.5061657,-0.17157 -42.5839836,-0.24939 -0.077812,-0.0778 0.2500962,-0.60429 0.7286826,-1.16993 7.090084,-8.37977 52.633724,-61.84813 53.437389,-62.73564 l 0.788531,-0.8708 0.533068,0.63852 c 0.293187,0.35119 3.681187,5.10629 7.528886,10.56689 4.237718,6.01411 7.119418,9.93017 7.309328,9.93295 0.318424,0.004 1.264956,-1.3967 2.196555,-3.25206 0.280109,-0.55785 0.88559,-1.47917 1.345522,-2.04738 0.459926,-0.5682 1.343028,-1.69118 1.962443,-2.49551 1.32008,-1.71416 2.960579,-3.76762 5.020766,-6.28463 0.864564,-1.05628 3.576368,-5.17027 6.525338,-9.89941 8.948,-14.34951 10.87314,-17.16739 12.19588,-17.85141 1.31988,-0.68253 2.12679,-0.14473 3.74152,2.4937 0.47664,0.77882 1.92141,3.12706 3.21059,5.21831 1.28918,2.09125 4.04925,6.65398 6.1335,10.1394 12.62841,21.11809 14.51696,24.13298 17.57954,28.06391 1.6231,2.08332 3.05535,3.82178 3.18277,3.86325 0.25202,0.082 0.21254,0.13045 7.47037,-9.16321 2.73471,-3.5018 5.07622,-6.4099 5.20335,-6.46246 0.12713,-0.0526 0.52199,0.11351 0.87745,0.36902 0.35547,0.25551 1.02168,0.71125 1.48047,1.01274 0.4588,0.30149 1.4119,0.98689 2.11801,1.52311 0.70611,0.53622 2.10313,1.59691 3.10449,2.35709 1.60484,1.21831 5.38171,4.58162 9.50559,8.46477 0.7403,0.69709 2.45045,2.5836 3.80033,4.19225 2.86567,3.41503 5.83936,6.71995 6.82242,7.58236 1.17172,1.02791 7.41253,7.67709 10.00031,10.65468 3.9111,4.50023 8.87373,10.77818 8.59378,10.8715 -0.30665,0.10221 -4.5085,-1.32739 -6.85384,-2.33189 -7.39568,-3.16756 -15.50951,-8.2438 -22.71616,-14.21187 -3.1837,-2.63653 -8.96259,-8.56266 -10.92896,-11.2074 -0.95991,-1.29108 -1.88299,-2.55641 -2.05129,-2.81187 -0.20274,-0.30774 -0.39293,-0.41073 -0.56363,-0.30523 -0.20445,0.12636 -0.23471,0.84757 -0.1466,3.49432 0.11777,3.53753 0.52236,6.22092 1.42893,9.47724 0.28364,1.01882 0.55947,2.10321 0.61296,2.40976 0.0889,0.50948 0.0574,0.54609 -0.36671,0.42615 -0.25518,-0.0722 -1.0956,-0.43522 -1.8676,-0.80679 -1.85615,-0.89338 -3.86101,-2.90132 -5.40642,-5.41472 -0.63547,-1.0335 -1.22572,-1.87909 -1.31168,-1.87909 -0.25152,0 -0.67362,0.76333 -1.40171,2.53486 -1.062,2.58393 -1.53367,4.676 -1.66705,7.39393 -0.0849,1.73135 -0.19124,2.44569 -0.37281,2.50577 -0.31252,0.1034 -6.26685,-5.867 -9.6786,-9.70472 -9.47735,-10.66063 -20.2036,-24.86273 -26.64937,-35.2851 -1.03069,-1.66657 -1.99589,-3.03013 -2.14487,-3.03013 -0.20506,0 -0.32402,0.59219 -0.48962,2.43735 -0.37438,4.17145 -0.54882,4.67592 -2.49288,7.2095 -0.36817,0.47981 -0.71783,1.11457 -0.77704,1.41058 -0.2053,1.02653 1.81749,6.22486 4.38494,11.26875 3.12491,6.13906 6.71457,11.32249 12.34194,17.82166 0.52467,0.60595 0.9106,1.14507 0.85762,1.19805 -0.053,0.053 -3.23525,-1.44082 -7.07171,-3.31956 -3.83646,-1.87873 -7.09603,-3.41588 -7.24349,-3.41588 -0.40128,0 -0.33467,0.37708 0.41242,2.3348 3.49301,9.15325 8.72559,17.68988 14.47783,23.6197 1.20759,1.24488 2.19562,2.4075 2.19562,2.5836 0,0.35936 7.96615,0.34482 -74.323115,0.13561 z m -6.012136,-14.25074 c 3.951965,-1.98564 10.236395,-6.21546 14.926654,-10.04658 4.832382,-3.94721 10.616835,-9.48407 10.616835,-10.16241 0,-0.15776 -0.620388,-1.0396 -1.378647,-1.95965 -1.640333,-1.99034 -3.30969,-4.76965 -4.849223,-8.07346 -0.618254,-1.32676 -1.247684,-2.43662 -1.398732,-2.46635 -0.175037,-0.0344 -0.612965,0.62703 -1.207557,1.82399 -2.271239,4.57221 -6.266985,10.21787 -11.029685,15.58405 -0.76147,0.85794 -1.385705,1.62571 -1.387191,1.70614 -0.01321,0.71472 4.303735,-1.45623 5.799348,-2.91641 0.581426,-0.56766 1.09212,-1.0321 1.134879,-1.0321 0.169786,0 -0.935324,2.2574 -1.982883,4.05041 -2.45911,4.20906 -5.056881,7.55893 -8.890752,11.46481 -1.481099,1.5089 -2.692906,2.80905 -2.692906,2.88921 0,0.21837 0.712604,-0.044 2.33986,-0.86165 z"
       id="path19" /></g></svg>
