<?xml version="1.0" encoding="UTF-8" standalone="no"?>
<svg xmlns="http://www.w3.org/2000/svg" version="1.1" viewBox="0.00 0.00 592.00 592.00">
<path fill="#0e2e47" d="
  M 345.50 437.70
  A 0.11 0.11 0.0 0 1 345.38 437.87
  Q 324.07 428.59 305.70 418.71
  A 0.47 0.47 0.0 0 0 305.05 419.32
  C 317.47 447.30 334.19 472.55 352.85 496.74
  A 0.43 0.42 -18.6 0 1 352.51 497.42
  L 32.30 497.42
  A 0.78 0.78 0.0 0 1 31.69 496.16
  Q 47.66 476.21 63.87 457.12
  Q 108.40 404.68 123.41 387.40
  C 143.60 364.15 161.71 343.70 180.52 324.27
  Q 182.14 322.60 183.33 321.96
  A 2.08 2.07 58.3 0 1 186.01 322.60
  L 223.84 376.42
  A 0.55 0.55 0.0 0 0 224.73 376.44
  Q 233.38 365.52 253.86 338.38
  Q 257.50 333.56 260.96 327.17
  Q 277.47 296.70 300.65 267.14
  C 303.56 263.43 308.84 259.47 312.38 265.39
  Q 335.84 304.66 349.05 326.71
  C 364.48 352.46 379.45 376.63 397.07 399.28
  A 0.58 0.58 0.0 0 0 397.99 399.28
  Q 414.86 377.03 432.17 356.69
  A 1.06 1.04 -53.0 0 1 433.53 356.49
  Q 436.50 358.40 441.40 362.23
  Q 451.91 370.45 464.08 382.20
  Q 515.65 432.00 560.42 484.58
  Q 560.68 484.89 560.69 485.19
  A 0.23 0.22 -78.2 0 1 560.38 485.40
  C 527.44 470.66 495.15 453.52 467.68 430.57
  Q 452.71 418.06 441.37 402.92
  A 0.21 0.21 0.0 0 0 440.99 403.04
  C 440.82 416.61 441.78 431.57 446.38 444.03
  A 0.37 0.36 -84.4 0 1 445.85 444.47
  Q 436.33 438.60 428.67 431.08
  Q 428.14 430.57 421.70 423.95
  A 0.48 0.48 0.0 0 0 420.95 424.03
  Q 412.74 437.63 412.91 453.25
  A 0.30 0.30 0.0 0 1 412.41 453.47
  Q 356.83 401.24 315.66 336.60
  Q 309.75 327.31 306.19 318.41
  A 0.34 0.34 0.0 0 0 305.54 318.51
  Q 305.05 324.98 305.06 337.24
  Q 305.06 347.55 296.88 353.99
  A 1.62 1.61 -27.8 0 0 296.33 355.74
  Q 300.14 367.99 306.88 380.88
  Q 322.85 411.42 345.50 437.70
  Z
  M 147.61 418.03
  A 0.31 0.31 0.0 0 0 147.95 418.52
  Q 155.64 415.71 163.16 411.07
  A 0.36 0.35 87.9 0 1 163.66 411.54
  C 154.00 430.39 140.50 446.00 125.47 460.74
  A 0.64 0.64 0.0 0 0 125.79 461.83
  Q 126.26 461.92 126.93 461.66
  Q 138.99 456.87 149.90 449.65
  Q 180.33 429.50 203.43 403.32
  A 1.50 1.50 0.0 0 0 203.53 401.46
  Q 191.35 384.26 181.71 368.25
  A 0.49 0.49 0.0 0 0 180.86 368.28
  Q 167.16 394.66 147.61 418.03
  Z"
/>
<path fill="#d36a2d" d="
  M 254.93 220.31
  Q 253.11 193.38 259.64 167.81
  Q 265.27 145.74 276.24 128.25
  C 291.69 103.64 313.77 84.79 339.37 70.91
  A 0.43 0.43 0.0 0 1 339.92 71.55
  Q 326.87 88.74 323.37 110.44
  Q 320.59 127.62 324.04 142.98
  C 326.28 153.00 330.57 161.67 337.15 170.49
  C 348.39 185.58 358.54 201.58 362.51 219.47
  Q 365.19 231.53 365.14 244.58
  A 0.40 0.40 0.0 0 0 365.86 244.81
  C 373.95 233.27 376.08 218.40 374.78 204.58
  A 0.60 0.60 0.0 0 1 375.75 204.06
  C 402.55 225.93 414.88 261.96 403.88 295.38
  C 399.35 309.14 392.32 321.48 384.30 334.06
  A 0.53 0.53 0.0 0 1 383.40 334.05
  Q 379.79 328.29 376.79 323.21
  Q 353.59 283.87 324.94 238.56
  Q 316.92 225.88 308.31 213.18
  A 0.76 0.75 -43.0 0 0 307.09 213.14
  Q 301.94 219.68 296.24 227.73
  Q 261.79 276.39 232.66 324.84
  A 0.37 0.37 0.0 0 1 232.03 324.85
  Q 217.96 303.09 210.89 279.92
  C 198.06 237.95 206.97 192.84 237.95 160.97
  A 0.41 0.41 0.0 0 1 238.65 161.31
  C 236.73 175.29 237.46 190.31 242.26 202.25
  Q 246.40 212.55 254.33 220.58
  A 0.35 0.35 0.0 0 0 254.93 220.31
  Z"
/>
</svg>
